<svg xmlns="http://www.w3.org/2000/svg" xmlns:xlink="http://www.w3.org/1999/xlink" version="1.1"><metadata/><defs><font id="microknightregular" horiz-adv-x="1024"><font-face ascent="2048" descent="0" units-per-em="2048"/><glyph/><glyph/><glyph/><glyph/><glyph/><glyph/><glyph d="M383 256v256h256v-256h-256zM383 768v1280h256v-1280h-256z" unicode="!"/><glyph d="M127 1536v512h257v-768h-128v256h-129zM511 1536v512h257v-768h-165v256h-92z" unicode="&quot;"/><glyph d="M0 768v256h128v256h-128v256h128v512h256v-512h128v512h256v-512h128v-256h-128v-256h128v-256h-128v-512h-256v512h-128v-512h-256v512h-128zM384 1024h128v256h-128v-256z" unicode="#"/><glyph d="M0 1280v256h128v256h256v256h128v-256h256v-256h-256v-256h256v-256h128v-512h-128v-256h-256v-256h-128v256h-256v256h256v512h-256v256h-128zM256 1280h128v256h-128v-256zM512 512h128v512h-128v-512z" unicode="$"/><glyph d="M0 256v256h128v256h128v256h128v768h-256v256h256v-256h128v-256h128v256h256v-256h-128v-256h-128v-256h-128v-256h256v-256h128v-256h-128v256h-256v256h-128v-256h128v-256h256v-256h-256v256h-128v256h-128v-256h-256zM0 1536v256h128v-256h256v-256h-256v256h-128z" unicode="%"/><glyph d="M0 512v768h128v256h-128v256h128v256h384v-256h128v-256h-128v-512h128v256h256v-256h-128v-256h-128v-256h128v-256h128v-256h-256v256h-512v256h-128zM256 512h128v512h-128v-512zM256 1536h128v256h-128v-256z" unicode="&amp;"/><glyph d="M256 1280v256h128v512h256v-512h-128v-256h-256z" unicode="'"/><glyph d="M128 768v768h256v-768h128v-256h128v-256h-256v256h-128v256h-128zM256 1536v256h128v256h256v-256h-128v-256h-256z" unicode="("/><glyph d="M256 256v256h128v256h128v768h-128v256h-128v256h256v-256h128v-256h128v-768h-128v-256h-128v-256h-256z" unicode=")"/><glyph d="M0 1024v256h256v256h-128v256h256v-256h128v256h256v-256h-128v-256h256v-256h-256v-256h128v-256h-256v256h-128v-256h-256v256h128v256h-256z" unicode="*"/><glyph d="M127 1024v256h256v512h256v-512h256v-256h-256v-512h-256v512h-256z" unicode="+"/><glyph d="M256 0v256h128v512h256v-512h-128v-256h-256z" unicode=","/><glyph d="M128 1024v256h896v-256h-896z" unicode="-"/><glyph d="M383 256v512h256v-512h-256z" unicode="."/><glyph d="M0 0v512h128v256h128v256h128v256h128v256h128v256h128v256h256v-256h-128v-256h-128v-256h-128v-256h-128v-256h-128v-256h-128v-256h-128v-256h-128z" unicode="/"/><glyph d="M0 512v1024h128v256h512v-256h128v-256h128v-768h-128v-256h-640v256h-128zM256 1024h128v256h128v256h-256v-512zM384 512h256v512h-128v-256h-128v-256z" unicode="0"/><glyph d="M128 256v256h256v768h-128v256h128v512h256v-1536h256v-256h-768z" unicode="1"/><glyph d="M0 256v768h128v256h128v256h384v256h-512v256h640v-256h128v-256h-128v-256h-384v-256h-128v-512h640v-256h-896z" unicode="2"/><glyph d="M0 512v256h128v256h128v-512h384v768h-256v256h256v256h-384v256h512v-256h128v-256h-128v-256h128v-768h-128v-256h-640v256h-128z" unicode="3"/><glyph d="M0 475v549h128v256h128v256h128v512h256v-512h-128v-256h256v-512h128v-293h-128v-219h-256v219h-512zM256 768h256v512h-128v-256h-128v-256z" unicode="4"/><glyph d="M0 512v256h128v256h128v-512h256v256h128v512h-640v768h640v-256h-384v-256h511v-256h129v-512h-128v-256h-128v-256h-512v256h-128z" unicode="5"/><glyph d="M0 512v1280h128v256h384v-256h-256v-256h512v-256h128v-512h-128v-256h-128v-256h-512v256h-128zM256 512h256v256h128v512h-384v-768z" unicode="6"/><glyph d="M0 1792v256h896v-512h-128v-256h-128v-1024h-256v1024h128v256h127v256h-639z" unicode="7"/><glyph d="M0 512v768h128v256h-128v256h128v256h512v-256h128v-512h128v-512h-128v-256h-128v-256h-512v256h-128zM256 512h256v256h128v512h-384v-768zM256 1536h256v256h-256v-256z" unicode="8"/><glyph d="M0 1024v768h128v256h512v-256h128v-256h128v-1024h-128v-256h-384v256h256v256h-512v256h-128zM256 1024h384v512h-128v256h-256v-768z" unicode="9"/><glyph d="M384 256v512h256v-512h-256zM384 1024v512h256v-512h-256z" unicode=":"/><glyph d="M256 0v256h128v512h256v-512h-128v-256h-256zM384 1024v512h256v-512h-256z" unicode=";"/><glyph d="M128 1024v256h128v256h128v256h256v-256h-128v-256h-128v-256h128v-256h128v-256h-256v256h-128v256h-128z" unicode="&lt;"/><glyph d="M128 512v256h768v-256h-768zM128 1280v256h768v-256h-768z" unicode="="/><glyph d="M256 512v256h128v256h128v256h-128v256h-128v256h256v-256h128v-256h128v-256h-128v-256h-128v-256h-256z" unicode="&gt;"/><glyph d="M0 1536v256h128v256h639v-256h128v-512h-128v-256h-255v-256h-256v512h383v512h-383v-256h-256zM256 256v256h256v-256h-256z" unicode="?"/><glyph d="M0 512v1280h128v256h640v-256h128v-1024h-512v768h256v256h-384v-1280h640v-256h-768v256h-128zM512 1024h128v256h-128v-256z" unicode="@"/><glyph d="M0 256v1536h128v256h512v-256h157v-256h99v-1280h-256v768h-384v-768h-256zM256 1280h384v256h-128v256h-256v-512z" unicode="A"/><glyph d="M0 256v1792h640v-256h128v-512h128v-512h-128v-256h-128v-256h-640zM256 512h256v256h128v512h-384v-768zM256 1536h256v256h-256v-256z" unicode="B"/><glyph d="M0 512v1280h128v256h512v-256h128v-256h-256v256h-256v-1280h384v256h256v-256h-128v-256h-640v256h-128z" unicode="C"/><glyph d="M0 256v1792h640v-256h128v-256h157v-1024h-157v-256h-768zM256 512h384v1024h-128v256h-256v-1280z" unicode="D"/><glyph d="M0 256v1792h896v-256h-640v-256h512v-256h-512v-768h640v-256h-896z" unicode="E"/><glyph d="M0 256v1792h896v-256h-639v-256h511v-256h-511l-1 -1024h-256z" unicode="F"/><glyph d="M0 512v1024h128v256h128v256h384v-256h-256v-256h-128v-1024h384v512h-128v256h384v-1280h-256v256h-512v256h-128z" unicode="G"/><glyph d="M0 256v1792h256v-768h385v768h256v-1792h-256v768h-385v-768h-256z" unicode="H"/><glyph d="M128 256v256h256v1280h-256v256h768v-256h-256v-1280h256v-256h-768z" unicode="I"/><glyph d="M0 512v512h256v-512h383v1280h-127v256h383v-1536h-128v-256h-639v256h-128z" unicode="J"/><glyph d="M0 256v1792h256v-768h128v256h128v256h128v256h256v-256h-128v-256h-128v-256h-128v-256h128v-256h128v-256h128v-256h-256v256h-128v256h-128v256h-128v-768h-256z" unicode="K"/><glyph d="M0 256v1792h256v-1536h640v-256h-896z" unicode="L"/><glyph d="M0 256v1792h256v-256h128v-256h128v256h128v256h256v-1792h-256v1024h-128v-256h-128v256h-128v-1024h-256z" unicode="M"/><glyph d="M0 256v1792h256v-256h128v-256h128v-256h128v768h256v-1792h-256v512h-128v256h-128v256h-128v-1024h-256z" unicode="N"/><glyph d="M0 512v1280h128v256h512v-256h128v-256h128v-1024h-128v-256h-640v256h-128zM256 512h384v1024h-128v256h-256v-1280z" unicode="O"/><glyph d="M0 256v1792h640v-256h128v-256h128v-512h-128v-256h-512v-512h-256zM257 1024h382v512h-127v256h-255v-768z" unicode="P"/><glyph d="M0 512v1280h128v256h512v-256h128v-256h128v-1024h-128v-512h-256v256h-384v256h-128zM256 512h128v256h128v-256h128v1024h-128v256h-256v-1280z" unicode="Q"/><glyph d="M0 256v1792h640v-256h128v-256h128v-512h-128v-256h-128v-256h128v-256h128v-256h-256v256h-128v256h-128v256h-128v-512h-256zM256 1024h384v512h-128v256h-256v-768z" unicode="R"/><glyph d="M0 512v256h128v256h128v-512h384v768h-512v256h-128v256h128v256h512v-256h-384v-256h512v-256h128v-768h-128v-256h-640v256h-128z" unicode="S"/><glyph d="M127 1792v256h768v-256h-256v-1536h-256v1536h-256z" unicode="T"/><glyph d="M0 512v1536h256v-1536h383v1536h256v-1536h-128v-256h-639v256h-128z" unicode="U"/><glyph d="M0 1280v768h256v-768h128v-512h128v512h128v768h256v-768h-128v-512h-128v-512h-384v512h-128v512h-128z" unicode="V"/><glyph d="M0 256v1792h256v-1024h128v256h128v-256h128v1024h256v-1792h-256v256h-128v256h-128v-256h-128v-256h-256z" unicode="W"/><glyph d="M0 256v512h128v256h128v512h-128v256h-128v256h256v-256h128v-256h128v256h128v256h256v-256h-128v-256h-128v-512h128v-256h128v-512h-256v512h-128v256h-128v-256h-128v-512h-256z" unicode="X"/><glyph d="M0 1280v768h256v-768h384v768h256v-768h-128v-1024h-256v768h-384v256h-128z" unicode="Y"/><glyph d="M0 256v512h128v256h128v256h128v256h128v256h-512v256h896v-256h-128v-256h-128v-256h-128v-256h-128v-256h-128v-256h640v-256h-896z" unicode="Z"/><glyph d="M256 256v1792h384v-256h-128v-1280h128v-256h-384z" unicode="["/><glyph d="M0 1792v256h256v-256h128v-256h128v-256h128v-256h128v-256h128v-256h128v-512h-128v256h-128v256h-128v256h-128v256h-128v256h-128v256h-128v256h-128z" unicode="\"/><glyph d="M128 256v256h128v1280h-128v256h384v-1792h-384z" unicode="]"/><glyph d="M128 1280v256h128v256h128v256h128v-256h128v-256h128v-256h-256v256h-128v-256h-256z" unicode="^"/><glyph d="M0 0v256h1024v-256h-1024z" unicode="_"/><glyph d="M384 1536v512h256v-512h128v-256h-256v256h-128z" unicode="`"/><glyph d="M1 512v512h128v256h511v256h-384v256h512v-256h127v-1280h-767v256h-127zM256 512h383l1 512h-384v-512z" unicode="a"/><glyph d="M0 256v1792h256v-256h384v-256h128v-256h128v-768h-128v-256h-768zM256 512h384v768h-128v256h-256v-1024z" unicode="b"/><glyph d="M1 512v1024h128v256h511v-256h129v-256h-256v256h-257v-1024h385v256h256v-256h-129v-256h-640v256h-127z" unicode="c"/><glyph d="M0 512v768h128v256h128v256h384v256h256v-1792h-768v256h-128zM256 512h384v1024h-256v-256h-128v-768z" unicode="d"/><glyph d="M0 512v1024h128v256h512v-256h128v-512h-512v-512h384v256h256v-256h-128v-256h-640v256h-128zM256 1280h256v256h-256v-256z" unicode="e"/><glyph d="M128 0v1792h128v256h384v-256h128v-256h-256v256h-128v-512h256v-256h-256v-1024h-256z" unicode="f"/><glyph d="M0 768v768h128v256h768v-1536h-128v-256h-640v256h512v256h-512v256h-128zM256 768h384v768h-384v-768z" unicode="g"/><glyph d="M0 256v1792h256v-256h384v-256h128v-256h128v-1024h-256v1024h-128v256h-256v-1280h-256z" unicode="h"/><glyph d="M128 256v256h256v768h-128v256h384v-1024h256v-256h-768zM383 1792v256h256v-256h-256z" unicode="i"/><glyph d="M128 256v256h128v-256h256v1024h-128v256h384v-1280h-128v-256h-384v256h-128zM512 1792v256h256v-256h-256z" unicode="j"/><glyph d="M0 256v1792h256v-768h128v256h128v256h256v-256h-128v-256h-128v-256h128v-256h128v-256h128v-256h-256v256h-128v256h-128v256h-128v-768h-256z" unicode="k"/><glyph d="M128 256v256h255v1280h-127v256h383v-1536h257v-256h-768z" unicode="l"/><glyph d="M0 256v1536h256v-256h128v-256h128v256h129v256h126v-256h128v-1280h-256v768h-128v-256h-128v256h-128v-768h-255z" unicode="m"/><glyph d="M0 256v1536h640v-256h128v-256h128v-1024h-256v1024h-128v256h-256v-1280h-256z" unicode="n"/><glyph d="M0 512v1024h128v256h512v-256h128v-256h128v-768h-128v-256h-640v256h-128zM256 512h384v768h-128v256h-256v-1024z" unicode="o"/><glyph d="M0 0v1792h640v-256h128v-256h128v-768h-128v-256h-512v-256h-256zM256 512h384v768h-128v256h-256v-1024z" unicode="p"/><glyph d="M1 512v768h127v256h128v256h639v-1792h-255v256h-511v256h-128zM257 512h383v1024h-256v-256h-127v-768z" unicode="q"/><glyph d="M0 256v1536h768v-256h128v-256h-256v256h-384v-1280h-256z" unicode="r"/><glyph d="M0 512v256h256v-256h384v512h-512v256h-128v256h128v256h512v-256h-384v-256h512v-256h127v-512h-128v-256h-640v256h-127z" unicode="s"/><glyph d="M128 1536v256h128v256h256v-256h256v-256h-256v-1024h256v-256h-384v256h-128v1024h-128zM768 512v256h128v-256h-128z" unicode="t"/><glyph d="M0 512l1 1280h255v-1280h384v1280h255v-1536h-767v256h-128z" unicode="u"/><glyph d="M0 1280v512h256v-512h128v-512h128v512h128v512h256v-512h-128v-512h-128v-512h-384v512h-128v512h-128z" unicode="v"/><glyph d="M0 1024v768h256v-538h128v282h128v-282h128v538h256v-768h-128v-768h-128v256h-128v256h-128v-256h-128v-256h-128v768h-128z" unicode="w"/><glyph d="M0 256v256h128v256h129v512h-128v256h-128v256h256v-256h128v-256h128v256h128v256h256v-256h-128v-256h-129v-512h128v-256h128v-256h-256v256h-128v256h-128v-256h-128v-256h-256z" unicode="x"/><glyph d="M0 768v1024h256v-1024h384v1024h285v-1536h-157v-256h-640v256h512v256h-512v256h-128z" unicode="y"/><glyph d="M0 256v256h128v256h128v256h128v256h129v256h-512v256h896v-256h-128v-256h-129v-256h-128v-256h-102v-256h486v-256h-896z" unicode="z"/><glyph d="M256 1024v256h128v512h128v256h256v-256h-128v-512h-128v-256h128v-512h128v-256h-256v256h-128v512h-128z" unicode="{"/><glyph d="M384 0v2048h256v-2048h-256z" unicode="|"/><glyph d="M256 256v256h128v512h128v256h-128v512h-128v256h256v-256h128v-512h128v-256h-128v-512h-128v-256h-256z" unicode="}"/><glyph d="M0 1536v256h128v-256h-128zM128 1792v256h384v-256h256v-256h-384v256h-256zM768 1792v256h128v-256h-128z" unicode="~"/><glyph d="M0 768v768h128v256h128v256h384v-256h-128v-256h-128v-256h-128v-256h-128v-256h-128zM384 0v256h128v256h128v256h128v256h128v256h128v-768h-128v-256h-128v-256h-384z"/><glyph d="M0 0v256h256v512h384v-512h256v768h-128v256h-128v256h-256v256h-128v-256h-128v-256h-128v768h384v-256h256v256h384v-2048h-1024zM256 1024v256h256v-256h-256z"/><glyph d="M0 0v256h256v512h384v-512h256v768h-128v256h-128v256h128v256h-256v256h512v-2048h-1024zM0 1280v256h128v-256h-128zM0 1792v256h256v-256h256v-256h-256v256h-256zM256 1024v256h256v-256h-256z"/><glyph d="M0 0v256h256v512h384v-512h256v768h-128v256h-128v256h128v256h-256v256h256v-256h128v256h128v-2048h-1024zM0 1280v256h128v-256h-128zM0 1792v256h128v-256h256v-256h-256v256h-128zM256 1024v256h256v-256h-256z"/><glyph d="M0 0v256h256v512h384v-512h256v768h-128v256h-128v256h-512v-256h-128v768h128v-256h256v256h128v-256h256v256h256v-2048h-1024zM256 1024v256h256v-256h-256z"/><glyph d="M0 0v256h256v512h384v-512h256v768h-128v256h-128v256h128v256h-256v256h512v-2048h-1024zM0 1280v256h128v-256h-128zM0 1792v256h256v-256h256v-256h-256v256h-256zM256 1024v256h256v-256h-256z" unicode=""/><glyph d="M0 0v256h256v768h256v-768h512v-256h-1024zM0 1536v512h256v-256h-128v-256h-128zM256 1280v256h128v256h128v-512h-256zM768 512v768h256v-768h-256zM768 1536v256h256v-256h-256z"/><glyph d="M0 0v2048h256v-256h256v-256h-512v-1280h896v256h-640v256h512v256h-512v256h640v256h-256v256h-128v256h512v-2048h-1024z"/><glyph d="M0 0v2048h384v-256h-128v-256h-256v-1280h896v256h-640v256h512v256h-512v256h640v256h-512v256h256v256h384v-2048h-1024z"/><glyph d="M0 0v256h896v256h-640v256h512v256h-512v256h640v512h-256v256h384v-2048h-1024zM0 1536v512h384v-256h256v-256h-256v256h-256v-256h-128z"/><glyph d="M0 0v2048h128v-256h256v256h128v-256h256v256h256v-2048h-1024zM128 256h768v256h-512v256h384v256h-384v256h512v256h-768v-1280z"/><glyph d="M0 0v2048h256v-256h227v256h541v-2048h-1024zM128 256h768v256h-256v768h256v256h-256v256h-128v-256h-384v-256h256v-768h-256v-256z"/><glyph d="M0 0v256h256v768h128v-256h128v-256h128v-256h256v1280h-128v256h-256v256h256v-256h128v256h128v-2048h-1024zM0 1792v256h128v-256h256v-256h256v-512h-128v256h-128v256h-256v256h-128z"/><glyph d="M0 0v512h128v-256h640v256h128v512h-128v256h-128v512h-128v256h512v-2048h-1024zM0 1280v768h256v-256h256v-256h-384v-256h-128zM256 512v768h256v-256h128v-512h-384z"/><glyph d="M0 0v512h128v-256h640v256h128v512h-128v256h-128v256h-256v256h-128v-256h-128v-256h-128v768h384v-256h256v256h384v-2048h-1024zM256 512v768h256v-256h128v-512h-384z"/><glyph d="M0 0v512h128v-256h640v256h128v512h-128v256h-128v256h128v256h-256v256h512v-2048h-1024zM0 1280v256h128v-256h-128zM0 1792v256h256v-256h256v-256h-256v256h-256zM256 512v768h256v-256h128v-512h-384z"/><glyph d="M0 0v512h128v-256h640v256h128v512h-128v256h-128v256h128v256h-256v256h256v-256h128v256h128v-2048h-1024zM0 1280v256h128v-256h-128zM0 1792v256h128v-256h256v-256h-256v256h-128zM256 512v768h256v-256h128v-512h-384z"/><glyph d="M0 0v512h128v-256h640v256h128v512h-128v256h-128v256h-512v-256h-128v768h128v-256h256v256h128v-256h256v256h256v-2048h-1024zM256 512v768h256v-256h128v-512h-384z"/><glyph d="M0 0v512h128v-256h768v256h128v-512h-1024zM0 1536v512h1024v-768h-128v256h-128v256h-640v-256h-128zM256 512v512h128v-256h256v-256h-384zM256 1280v256h128v-256h-128zM512 1280v256h128v-256h-128zM640 768v256h128v-256h-128z"/><glyph d="M0 0v512h128v-256h640v256h128v1024h-128v256h-128v256h384v-2048h-1024zM0 1792v256h128v-256h-128zM256 512v256h128v256h128v256h128v-768h-384zM256 1280v512h256v-256h-128v-256h-128z"/><glyph d="M0 0v2048h256v-256h256v-256h128v-1024h-384v1024h-256v-1024h128v-256h640v256h128v1024h-256v256h-128v256h512v-2048h-1024z"/><glyph d="M0 0v512h128v-256h640v256h128v1024h-256v-1024h-384v1024h-256v512h384v-256h256v256h384v-2048h-1024zM256 1536v256h128v-256h-128z"/><glyph d="M0 0v512h128v-256h640v256h128v1280h-256v256h384v-2048h-1024zM0 1536v512h384v-256h256v-1280h-384v1024h128v256h-256v-256h-128z"/><glyph d="M0 0v2048h128v-256h256v256h128v-256h256v256h256v-2048h-1024zM0 512h128v-256h640v256h128v1024h-256v-1024h-384v1024h-256v-1024z"/><glyph d="M0 1536v512h1024v-2048h-768v1536h256v-256h-128v-256h256v-512h-256v-256h384v256h128v512h-128v512h-128v256h-512v-256h-128z"/><glyph/><glyph d="M383 256v1280h256v-1280h-256zM383 1792v256h256v-256h-256z" unicode="¡"/><glyph d="M0 512v1024h128v256h128v256h256v-256h128v-256h128v-256h-256v256h-256v-1024h384v256h256v-256h-128v-256h-256v-256h-256v256h-128v256h-128z" unicode="¢"/><glyph d="M0 256v256h128v512h-128v256h128v512h128v256h384v-256h128v-256h-256v256h-128v-512h256v-256h-256v-512h512v-256h-896z" unicode="£"/><glyph d="M0 768v512h128v256h-128v256h128v-256h640v-256h129v-512h-128v-256h128v-256h-128v256h-640v256h-129zM1 256v256h128v-256h-128zM257 768h384l-1 512h-383v-512zM768 1536v256h128v-256h-128z" unicode="¤"/><glyph d="M0 1280v768h256v-768h384v768h256v-768h-128v-512h128v-256h-128v-256h-256v256h-256v256h256v256h-384v256h-128z" unicode="¥"/><glyph d="M383 1280v768h256v-768h-256zM384 256v768h256v-768h-256z" unicode="¦"/><glyph d="M0 768v512h128v256h-128v256h128v256h512v-256h-384v-256h512v-256h128v-512h-128v-256h128v-256h-128v-256h-512v256h384v256h-512v256h-128zM256 768h384v512h-384v-512z" unicode="§"/><glyph d="M127 2048h257v-256h-256zM511 2048h257v-256h-256z" unicode="¨"/><glyph d="M0 512v1024h128v-1024h128v-256h512v-256h-512v256h-128v256h-128zM128 1536v256h128v-256h-128zM256 768v512h128v-512h256v-256h-256v256h-128zM256 1792v256h512v-256h128v-256h128v-1024h-128v1024h-128v256h-512zM384 1280v256h256v-256h-256zM768 256v256h128v-256 h-128z" unicode="©"/><glyph d="M0 1024v512h128v256h768v-1024h-768v256h-128zM128 256v256h640v-256h-640zM256 1024h384v512h-384v-512z" unicode="ª"/><glyph d="M0 1024v256h128v256h128v256h256v-256h-128v-256h-128v-256h128v-256h128v-256h-256v256h-128v256h-128zM384 1024v256h128v256h128v256h256v-256h-128v-256h-128v-256h128v-256h128v-256h-256v256h-128v256h-128z" unicode="«"/><glyph d="M128 1792v256h640v-512h-256v256h-384z" unicode="¬"/><glyph d="M127 1024v256h769v-256h-769z" unicode="­"/><glyph d="M0 512v1024h128v-1024h128v-256h512v-256h-512v256h-128v256h-128zM128 1536v256h128v-256h384v-256h128v-256h-128v256h-256v-256h256v-256h128v-256h128v-256h-128v256h-128v256h-256v-256h-128v1024h-128zM256 1792v256h512v-256h128v-256h128v-1024h-128v1024h-128 v256h-512z" unicode="®"/><glyph d="M128 1792v256h640v-256h-640z" unicode="¯"/><glyph d="M127 1280v512h128v256h385v-256h128v-512h-128v-256h-385v256h-128zM383 1280h129v512h-129v-512z" unicode="°"/><glyph d="M128 512v256h640v-256h-640zM128 1280v256h255v256h129v-256h256v-256h-256v-256h-128v256h-256z" unicode="±"/><glyph d="M128 768v512h128v256h128v256h-256v256h384v-256h128v-256h-128v-256h-128v-256h256v-256h-512z" unicode="²"/><glyph d="M128 768v256h256v256h-128v256h128v256h-256v256h384v-256h128v-256h-128v-256h128v-256h-128v-256h-384z" unicode="³"/><glyph d="M128 1280v256h128v279h128v233h256v-256h-128v-256h-128v-256h-256z" unicode="´"/><glyph d="M0 0v1536h256v-1024h384v1024h256v-1024h-128v-256h-512v-256h-256z" unicode="µ"/><glyph d="M0 1280v384h128v256h768v-256h-129v-1408h-127v1408h-129v-1408h-128v768h-256v256h-127z" unicode="¶"/><glyph d="M384 768v512h256v-512h-256z" unicode="·"/><glyph d="M256 0v256h128v256h256v-256h-128v-256h-256z" unicode="¸"/><glyph d="M128 768v256h128v512h-128v256h128v256h256v-1024h128v-256h-512z" unicode="¹"/><glyph d="M0 1024v512h128v256h640v-256h128v-512h-128v-256h-640v256h-128zM128 256v256h640v-256h-640zM256 1024h384v512h-384v-512z" unicode="º"/><glyph d="M0 512v256h128v256h128v256h-128v256h-128v256h256v-256h128v-256h128v-256h-128v-256h-128v-256h-256zM384 512v256h128v256h128v256h-128v256h-128v256h256v-256h128v-256h128v-256h-128v-256h-128v-256h-256z" unicode="»"/><glyph d="M0 256v256h128v256h128v256h-128v512h-128v256h128v256h256v-768h128v256h128v256h256v-256h-128v-256h128v-512h128v-768h-256v256h-256v512h-128v-256h-128v-256h-256zM512 768h128v256h-128v-256zM640 1024h128v256h-128v-256z" unicode="¼"/><glyph d="M0 256v256h128v256h128v256h-128v512h-128v256h128v256h256v-768h128v256h128v256h256v-256h-128v-256h-128v-256h256v-256h128v-256h-128v-256h128v-256h-640v256h128v256h256v256h-384v-256h-128v-256h-256z" unicode="½"/><glyph d="M0 256v256h128v256h-128v256h256v256h-128v256h128v256h-256v256h384v-256h128v-256h128v256h256v-256h-128v-256h128v-512h128v-768h-256v256h-256v512h-128v-256h-128v-256h-256zM384 1280v256h128v-256h-128zM512 768h128v256h-128v-256zM640 1024h128v256h-128v-256z" unicode="¾"/><glyph d="M0 512v256h256v-256h384v512h-384v512h256v-256h256v-256h128v-512h-128v-256h-640v256h-128zM256 1792v256h256v-256h-256z" unicode="¿"/><glyph d="M0 256v1024h128v256h384v256h-256v256h256v-256h128v-512h128v-256h128v-768h-256v512h-384v-512h-256zM256 1024h256v256h-256v-256z" unicode="À"/><glyph d="M0 256v1024h128v256h128v256h128v-256h256v-256h128v-256h128v-768h-256v512h-384v-512h-256zM256 1024h256v256h-256v-256zM384 1792v256h256v-256h-256z" unicode="Á"/><glyph d="M0 256v1024h128v256h-128v256h256v-256h256v256h-256v256h256v-256h256v-256h-128v-256h128v-256h128v-768h-256v512h-384v-512h-256zM256 1024h256v256h-256v-256z" unicode="Â"/><glyph d="M0 256v1024h128v256h-128v256h128v256h384v-256h256v-256h-128v-256h128v-256h128v-768h-256v512h-384v-512h-256zM128 1536h256v256h-256v-256zM256 1024h256v256h-256v-256zM768 1792v256h128v-256h-128z" unicode="Ã"/><glyph d="M0 256v1024h128v256h512v-256h128v-256h128v-768h-256v512h-384v-512h-256zM128 1792v256h256v-256h-256zM256 1024h256v256h-256v-256zM512 1792v256h256v-256h-256z" unicode="Ä"/><glyph d="M0 256v1024h128v256h-128v256h128v256h512v-256h128v-256h-128v-256h128v-256h128v-768h-256v512h-384v-512h-256zM256 1024h256v256h-256v-256zM256 1536h256v256h-256v-256z" unicode="Å"/><glyph d="M0 256v1280h128v256h128v256h768v-256h-256v-256h256v-256h-256v-768h256v-256h-512v768h-256v-768h-256zM256 1280h256v512h-128v-256h-128v-256z" unicode="Æ"/><glyph d="M0 512v1280h128v256h512v-256h128v-256h-256v256h-256v-1280h384v256h256v-256h-128v-293h-256v-219h-256v219h-128v293h-128z" unicode="Ç"/><glyph d="M0 256v1280h512v256h-256v256h256v-256h128v-256h257v-256h-641v-256h512v-256h-512v-256h641v-256h-897z" unicode="È"/><glyph d="M0 256v1280h256v256h128v-256h512v-256h-640v-256h512v-256h-512v-256h640v-256h-896zM384 1792v256h256v-256h-256z" unicode="É"/><glyph d="M0 256v1280h128v256h256v256h256v-256h256v-512h-640v-256h512v-256h-512v-256h640v-256h-896zM384 1536h256v256h-256v-256z" unicode="Ê"/><glyph d="M0 256v1280h896v-256h-640v-256h512v-256h-512v-256h640v-256h-896zM127 1792v256h283v-256h-283zM512 1792v256h256v-256h-256z" unicode="Ë"/><glyph d="M128 256v256h256v768h-256v256h384v256h-256v256h256v-256h128v-256h256v-256h-256v-768h256v-256h-768z" unicode="Ì"/><glyph d="M128 256v256h256v768h-256v256h128v256h128v-256h512v-256h-256v-768h256v-256h-768zM384 1792v256h256v-256h-256z" unicode="Í"/><glyph d="M127 1280v512h256v-256h256v256h-256v256h256v-256h257v-512h-257v-768h257v-256h-768v256h255v768h-256z" unicode="Î"/><glyph d="M127 1792v256h256v-256h-256zM128 256v256h255v768h-255v256h768v-256h-257v-768h257v-256h-768zM512 1792v256h256v-256h-256z" unicode="Ï"/><glyph d="M0 256v1792h640v-256h128v-256h128v-1024h-128v-256h-768zM256 512h384v1024h-128v256h-256v-512h128v-256h-128v-512z" unicode="Ð"/><glyph d="M0 256v1536h128v-256h256v-256h128v-256h128v512h-256v256h-256v256h384v-256h256v-256h128v-1280h-256v256h-128v256h-128v256h-128v-768h-256zM768 1792v256h128v-256h-128z" unicode="Ñ"/><glyph d="M0 512v768h128v256h384v256h-256v256h256v-256h128v-512h128v-256h128v-512h-128v-256h-640v256h-128zM256 512h384v512h-128v256h-256v-768z" unicode="Ò"/><glyph d="M0 512v768h128v256h128v256h128v-256h256v-256h128v-256h128v-512h-128v-256h-640v256h-128zM256 512h384v512h-128v256h-256v-768zM384 1792v256h256v-256h-256z" unicode="Ó"/><glyph d="M0 512v768h128v256h-128v256h256v-256h256v256h-256v256h256v-256h256v-256h-128v-256h128v-256h128v-512h-128v-256h-640v256h-128zM256 512h384v512h-128v256h-256v-768z" unicode="Ô"/><glyph d="M0 512v768h128v256h-128v256h128v256h384v-256h256v-256h-128v-256h128v-256h128v-512h-128v-256h-640v256h-128zM128 1536h256v256h-256v-256zM256 512h384v512h-128v256h-256v-768zM768 1792v256h128v-256h-128z" unicode="Õ"/><glyph d="M0 512v768h128v256h512v-256h128v-256h128v-512h-128v-256h-640v256h-128zM128 1792v256h256v-256h-256zM256 512h384v512h-128v256h-256v-768zM512 1792v256h256v-256h-256z" unicode="Ö"/><glyph d="M0 512v1024h128v256h640v-256h128v-256h128v-768h-128v-256h-768v256h-128zM256 512h384v256h-256v256h-128v-512zM256 1280h128v256h-128v-256zM512 1280h128v256h-128v-256zM640 768h128v256h-128v-256z" unicode="×"/><glyph d="M0 512v1280h128v256h512v-256h128v-256h128v-1024h-128v-256h-640v256h-128zM256 512h384v768h-128v-256h-128v-256h-128v-256zM256 1280h128v256h128v256h-256v-512z" unicode="Ø"/><glyph d="M0 512v1024h256v-1024h384v1024h-128v256h-256v256h256v-256h128v-256h256v-1024h-128v-256h-640v256h-128z" unicode="Ù"/><glyph d="M0 512v1024h256v-1024h384v1024h256v-1024h-128v-256h-640v256h-128zM256 1536v256h128v-256h-128zM384 1792v256h256v-256h-256z" unicode="Ú"/><glyph d="M0 512v1024h128v256h256v-256h-128v-1024h384v1280h-256v256h256v-256h255v-1280h-128v-256h-639v256h-128z" unicode="Û"/><glyph d="M0 512v1024h256v-1024h383v1024h256v-1024h-128v-256h-639v256h-128zM127 1792v256h256v-256h-256zM512 1792v256h256v-256h-256z" unicode="Ü"/><glyph d="M0 1024v512h256v-512h384v512h256v-512h-128v-768h-256v512h-384v256h-128zM256 1536v256h128v-256h-128zM384 1792v256h256v-256h-256z" unicode="Ý"/><glyph d="M0 0v2048h256v-256h384v-256h128v-256h128v-256h-128v-256h-512v-768h-256zM256 1024h384v256h-128v256h-256v-512z" unicode="Þ"/><glyph d="M0 0v1536h128v256h512v-256h128v-512h128v-512h-128v-256h-384v256h256v512h-256v256h128v256h-256v-1536h-256z" unicode="ß"/><glyph d="M0 512v256h128v256h511v256h-384v256h257v256h127v-256h128v-256h128v-1024h-767v256h-128zM255 1792v256h256v-256h-256zM256 512h383v256h-383v-256z" unicode="à"/><glyph d="M0 512v256h128v256h511v256h-384v512h128v256h256v-256h-255v-256h383v-256h128v-1024h-767v256h-128zM256 512h383v256h-383v-256z" unicode="á"/><glyph d="M0 512v256h128v256h511v256h-384v256h-128v256h256v-256h256v256h-256v256h256v-256h256v-256h-128v-256h128v-1024h-767v256h-128zM256 512h383v256h-383v-256z" unicode="â"/><glyph d="M0 512v256h128v256h512v256h-384v256h128v256h-256v256h384v-256h256v-512h128v-1024h-768v256h-128zM0 1536v256h128v-256h-128zM256 512h384v256h-384v-256zM768 1792v256h128v-256h-128z" unicode="ã"/><glyph d="M0 512v256h128v256h511v256h-384v256h512v-256h128v-1024h-767v256h-128zM127 1792v256h256v-256h-256zM256 512h383v256h-383v-256zM512 1792v256h256v-256h-256z" unicode="ä"/><glyph d="M0 512v256h128v256h511v256h-384v256h-127v256h128v256h512v-256h128v-256h-129v-256h128v-1024h-767v256h-128zM256 512h383v256h-383v-256zM384 1536h256v256h-256v-256z" unicode="å"/><glyph d="M0 512v512h128v256h256v256h-256v256h768v-256h128v-512h-384v-512h384v-256h-896v256h-128zM256 512h128v512h-128v-512zM640 1280h128v256h-128v-256z" unicode="æ"/><glyph d="M0 512v1024h128v256h512v-256h128v-256h-256v256h-256v-1024h384v256h256v-256h-128v-256h-256v-256h-256v256h-128v256h-128z" unicode="ç"/><glyph d="M0 512v768h128v256h384v256h-256v256h256v-256h128v-512h128v-256h-512v-512h384v256h256v-256h-128v-256h-640v256h-128z" unicode="è"/><glyph d="M0 512v768h128v256h128v256h128v-256h256v-256h128v-256h-512v-512h384v256h256v-256h-128v-256h-640v256h-128zM384 1792v256h256v-256h-256z" unicode="é"/><glyph d="M0 512v768h128v256h-128v256h256v256h256v-256h256v-256h-128v-256h128v-256h-512v-512h384v256h256v-256h-128v-256h-640v256h-128zM256 1536h256v256h-256v-256z" unicode="ê"/><glyph d="M0 512v768h128v256h512v-256h128v-256h-512v-512h384v256h256v-256h-128v-256h-640v256h-128zM128 1792v256h256v-256h-256zM512 1792v256h256v-256h-256z" unicode="ë"/><glyph d="M128 256v256h256v768h-128v256h256v256h-256v256h256v-256h128v-1280h256v-256h-768z" unicode="ì"/><glyph d="M128 256v256h256v768h-128v512h128v-256h256v-1024h256v-256h-768zM384 1792v256h256v-256h-256z" unicode="í"/><glyph d="M128 256v256h256v768h-128v256h-128v256h256v-256h256v-1024h256v-256h-768zM384 1792v256h301v-256h211v-256h-256v256h-256z" unicode="î"/><glyph d="M128 256v256h256v768h-128v256h384v-1024h256v-256h-768zM128 1792v256h256v-256h-256zM512 1792v256h256v-256h-256z" unicode="ï"/><glyph d="M0 512v512h128v256h128v256h128v256h128v256h256v-256h128v-1536h-768v256h-128zM256 512h384v768h-256v-256h-128v-512zM512 1536h128v256h-128v-256z" unicode="ð"/><glyph d="M0 256v1536h128v-256h256v256h-256v256h384v-256h256v-256h-128v-256h172v-256h84v-768h-256v768h-128v256h-256v-1024h-256zM768 1792v256h128v-256h-128z" unicode="ñ"/><glyph d="M0 512v768h128v256h384v256h-256v256h256v-256h128v-512h128v-256h128v-512h-128v-256h-640v256h-128zM256 512h384v512h-128v256h-256v-768z" unicode="ò"/><glyph d="M0 512v768h128v256h128v256h128v-256h256v-256h128v-256h128v-512h-128v-256h-640v256h-128zM256 512h384v512h-128v256h-256v-768zM384 1792v256h256v-256h-256z" unicode="ó"/><glyph d="M0 512v768h128v512h256v-256h256v-256h128v-256h128v-512h-128v-256h-640v256h-128zM256 512h384v512h-128v256h-256v-768zM384 1792v256h256v-256h256v-256h-256v256h-256z" unicode="ô"/><glyph d="M0 512v768h128v256h-128v256h128v256h384v-256h256v-256h-128v-256h128v-256h128v-512h-128v-256h-640v256h-128zM128 1536h256v256h-256v-256zM256 512h384v512h-128v256h-256v-768zM768 1792v256h128v-256h-128z" unicode="õ"/><glyph d="M0 512v768h128v256h512v-256h128v-256h128v-512h-128v-256h-640v256h-128zM128 1792v256h256v-256h-256zM256 512h384v512h-128v256h-256v-768zM512 1792v256h256v-256h-256z" unicode="ö"/><glyph d="M127 1024v256h768v-256h-768zM383 512v256h256v-256h-256zM383 1536v256h256v-256h-256z" unicode="÷"/><glyph d="M0 512v1024h128v256h512v-256h128v-256h128v-768h-128v-256h-640v256h-128zM256 1024h128v256h128v256h-256v-512zM384 512h256v512h-128v-256h-128v-256z" unicode="ø"/><glyph d="M0 512l1 1024h255v-1024h384v1024h255v-1280h-767v256h-128zM255 1792v256h256v-256h-256zM512 1536v256h127v-256h-127z" unicode="ù"/><glyph d="M0 512l1 1024h255v-1024h384v1024h255v-1280h-767v256h-128zM255 1536v256h128v256h256v-256h-255v-256h-129z" unicode="ú"/><glyph d="M1 512v1024h126v256h256v-256h-127v-1024h383v1280h-256v256h256v-256h257v-1536h-768v256h-127z" unicode="û"/><glyph d="M0 512l1 1024h255v-1024h384v1024h255v-1280h-767v256h-128zM128 1792v256h256v-256h-256zM513 1792v256h256v-256h-256z" unicode="ü"/><glyph d="M0 768v768h256v-768h384v768h256v-1280h-128v-256h-640v256h512v256h-512v256h-128zM256 1536v256h128v-256h-128zM384 1792v256h256v-256h-256z" unicode="ý"/><glyph d="M-1 0v2048h256v-512h385v-256h128v-256h128v-256h-128v-256h-513v-512h-256zM255 768h385v256h-128v256h-257v-512z" unicode="þ"/><glyph d="M0 768v768h256v-768h384v768h256v-1280h-128v-256h-640v256h512v256h-512v256h-128zM128 1792v256h256v-256h-256zM512 1792v256h256v-256h-256z" unicode="ÿ"/><glyph/><glyph horiz-adv-x="2048"/><glyph/><glyph horiz-adv-x="2048"/><glyph horiz-adv-x="682"/><glyph horiz-adv-x="512"/><glyph horiz-adv-x="341"/><glyph horiz-adv-x="341"/><glyph horiz-adv-x="256"/><glyph horiz-adv-x="409"/><glyph horiz-adv-x="113"/><glyph d="M128 1024v256h896v-256h-896z" unicode="‐"/><glyph d="M128 1024v256h896v-256h-896z" unicode="‑"/><glyph d="M128 1024v256h896v-256h-896z" unicode="‒"/><glyph d="M128 1024v256h1024v-256h-1024z" horiz-adv-x="1152" unicode="–"/><glyph d="M128 1024v256h2048v-256h-2048z" horiz-adv-x="2176" unicode="—"/><glyph horiz-adv-x="409"/><glyph horiz-adv-x="512"/><glyph d="M0 0v1792h1792v-1792h-1792z" horiz-adv-x="1792" unicode="◼"/><glyph d="M0 0v2048h384v-256h256v256h384v-2048h-1024zM128 256h768v256h-256v768h256v256h-512v256h-128v-256h-128v-256h256v-768h-256v-256z"/><glyph d="M0 0v2048h384v-256h256v-256h-256v256h-256v-512h256v-768h-256v-256h768v256h-256v768h256v512h-256v256h384v-2048h-1024z"/><glyph d="M0 0v2048h128v-256h256v256h128v-256h256v256h256v-2048h-1024zM128 256h768v256h-256v768h256v256h-768v-256h256v-768h-256v-256z"/><glyph d="M0 0v256h768v256h128v1024h-128v256h-128v256h384v-2048h-1024zM256 512v512h128v256h-128v512h256v-256h128v-1024h-384z"/><glyph d="M0 0v1024h128v-256h384v-512h256v768h128v512h-256v-512h-384v512h-256v512h384v-256h256v256h384v-2048h-1024zM256 1536v256h128v-256h-128z"/><glyph d="M256 0v768h512v256h128v256h-128v256h-128v256h-384v256h768v-2048h-768zM256 1024v512h256v-294h128v-218h-384z"/><glyph/><glyph/><glyph/><glyph/><glyph/><glyph/><glyph/><glyph/><glyph/><glyph/><glyph/><glyph/><glyph/><glyph/><glyph/><glyph/><glyph/><glyph/><glyph/><glyph/><glyph/><glyph/><glyph/><glyph/><glyph/><glyph/><glyph/><glyph d="M0 0v256h256v512h384v-512h256v768h-128v256h-128v512h-128v256h512v-2048h-1024zM0 1280v768h256v-256h256v-256h-384v-256h-128zM256 1024v256h256v-256h-256z"/></font>
</defs>
</svg>
