<svg xmlns="http://www.w3.org/2000/svg" xmlns:xlink="http://www.w3.org/1999/xlink" version="1.1"><metadata/><defs><font id="topazplus_a600a1200a4000Rg" horiz-adv-x="1024"><font-face ascent="2048" descent="0" units-per-em="2048"/><glyph d="M0 0v512h128v-256h512v256h-384v1280h384v-256h-256v-768h512v1024h-128v256h256v-2048h-1024zM0 1792v256h128v-256h-128zM512 1024v256h128v-256h-128z"/><glyph d="M0 0v512h128v-256h512v256h-384v1280h384v-256h-256v-768h512v1024h-128v256h256v-2048h-1024zM0 1792v256h128v-256h-128zM512 1024v256h128v-256h-128z"/><glyph d="M0 0v2048h128v-1792h640v256h128v512h-128v256h128v512h-128v256h256v-2048h-1024zM384 512v512h256v-512h-256zM384 1280v512h256v-512h-256z"/><glyph d="M0 0v2048h256v-256h128v-1280h-128v-256h512v256h-128v1280h128v256h256v-2048h-1024z"/><glyph d="M0 0v2048h640v-1536h-256v256h-256v-256h128v-256h512v256h128v1536h128v-2048h-1024z"/><glyph/><glyph d="M384 256v256h256v-256h-256zM384 768v1280h256v-1280h-256z" unicode="!"/><glyph d="M128 1536v512h256v-512h-256zM512 1536v512h256v-512h-256z" unicode="&quot;"/><glyph d="M0 768v256h128v256h-128v256h128v512h256v-512h128v512h256v-512h128v-256h-128v-256h128v-256h-128v-512h-256v512h-128v-512h-256v512h-128zM384 1024h128v256h-128v-256z" unicode="#"/><glyph d="M128 512v256h512v256h-384v256h-128v256h128v256h128v256h256v-256h256v-256h-512v-256h384v-256h128v-256h-128v-256h-128v-256h-256v256h-256z" unicode="$"/><glyph d="M0 0v512h128v256h128v256h-256v512h128v-256h128v-256h128v256h-128v256h-128v256h256v-512h128v256h128v256h128v256h256v-256h-128v-256h-128v-256h-128v-256h256v-512h-128v256h-128v256h-128v-256h128v-256h128v-256h-256v512h-128v-256h-128v-256h-128v-256h-128z" unicode="%"/><glyph d="M0 512v512h128v768h128v256h384v-256h128v-256h-128v-256h256v-256h-128v-256h128v-256h128v-256h-256v256h-128v-256h-512v256h-128zM256 512h256v256h-128v256h-128v-512zM384 1280h128v512h-128v-512zM512 1024h128v256h-128v-256z" unicode="&amp;"/><glyph d="M256 1280v256h128v512h256v-512h-128v-256h-256z" unicode="'"/><glyph d="M384 768v768h128v256h128v128h128v128h256v-256h-128v-128h-128v-128h-128v-768h128v-128h128v-128h128v-256h-256v128h-128v128h-128v256h-128z" unicode="("/><glyph d="M0 256v256h128v128h128v128h128v768h-128v128h-128v128h-128v256h256v-128h128v-128h128v-256h128v-768h-128v-256h-128v-128h-128v-128h-256z" unicode=")"/><glyph d="M0 1024v256h256v256h-128v256h256v-256h256v256h256v-256h-128v-256h256v-256h-256v-256h128v-256h-256v256h-256v-256h-256v256h128v256h-256z" unicode="*"/><glyph d="M127 1024v256h256v512h256v-512h256v-256h-256v-512h-256v512h-256z" unicode="+"/><glyph d="M256 0v256h128v512h256v-512h-128v-256h-256z" unicode=","/><glyph d="M0 1024v256h1024v-256h-1024z" unicode="-"/><glyph d="M383 256v512h256v-512h-256z" unicode="."/><glyph d="M0 0v256v256h128v256h128v256h128v256h128v256h128v256h128v256h256v-256h-128v-256h-128v-256h-128v-256h-128v-256h-128v-256h-128v-256h-128v-256h-128z" unicode="/"/><glyph d="M128 512v1280h128v256h512v-256h128v-1280h-128v-256h-512v256h-128zM384 512h256v512h-128v-256h-128v-256zM384 1280h128v256h128v256h-256v-512z" unicode="0"/><glyph d="M128 1280v256h128v256h128v256h256v-1792h-256v1024h-256zM128 1280v256h128v256h128v256h256v-1792h-256v1024h-256z" unicode="1"/><glyph d="M128 256v256h128v256h128v256h128v256h128v512h-256v-256h-256v256h128v256h512v-256h128v-512h-128v-256h-128v-256h-128v-256h384v-256h-768z" unicode="2"/><glyph d="M128 512v256h256v-256h256v512h-256v256h256v512h-256v-256h-256v256h128v256h512v-256h128v-512h-128v-256h128v-512h-128v-256h-512v256h-128z" unicode="3"/><glyph d="M0 768v512h128v256h128v256h128v256h384v-1024h128v-256h-128v-512h-256v512h-512zM256 1024h256v512h-128v-256h-128v-256z" unicode="4"/><glyph d="M128 512v256h256v-256h256v768h-512v768h768v-256h-512v-256h384v-256h128v-768h-128v-256h-512v256h-128z" unicode="5"/><glyph d="M128 512v1024h128v256h128v256h384v-256h-256v-256h-128v-256h384v-256h128v-512h-128v-256h-512v256h-128zM384 512h256v512h-256v-512z" unicode="6"/><glyph d="M128 1792v256h768v-768h-128v-256h-128v-768h-256v768h128v256h128v512h-512z" unicode="7"/><glyph d="M128 512v512h128v256h-128v512h128v256h512v-256h128v-512h-128v-256h128v-512h-128v-256h-512v256h-128zM384 512h256v512h-256v-512zM384 1280h256v512h-256v-512z" unicode="8"/><glyph d="M128 1280v512h128v256h512v-256h128v-1024h-128v-256h-128v-256h-384v256h256v256h128v256h-384v256h-128zM384 1280h256v512h-256v-512z" unicode="9"/><glyph d="M384 256v512h256v-512h-256zM384 1280v512h256v-512h-256z" unicode=":"/><glyph d="M256 0v256h128v512h256v-512h-128v-256h-256zM384 1280v512h256v-512h-256z" unicode=";"/><glyph d="M384 1024v256h128v256h128v256h128v256h256v-256h-128v-256h-128v-256h-128v-256h128v-256h128v-256h128v-256h-256v256h-128v256h-128v256h-128z" unicode="&lt;"/><glyph d="M0 768v256h1024v-256h-1024zM0 1280v256h1024v-256h-1024z" unicode="="/><glyph d="M0 256v256h128v256h128v256h128v256h-128v256h-128v256h-128v256h256v-256h128v-256h128v-256h128v-256h-128v-256h-128v-256h-128v-256h-256z" unicode="&gt;"/><glyph d="M128 1536v256h128v256h512v-256h128v-512h-128v-256h-128v-256h-256v256h128v256h128v512h-256v-256h-256zM384 256v256h256v-256h-256z" unicode="?"/><glyph d="M0 512v1280h128v256h640v-256h128v-1024h-512v768h256v256h-384v-1280h384v-256h-512v256h-128zM512 1024h128v256h-128v-256z" unicode="@"/><glyph d="M128 256v1536h128v256h512v-256h128v-1536h-256v768h-256v-768h-256zM384 1280h256v512h-256v-512z" unicode="A"/><glyph d="M128 256v1792h640v-256h128v-512h-128v-256h128v-512h-128v-256h-640zM384 512h256v512h-256v-512zM384 1280h256v512h-256v-512z" unicode="B"/><glyph d="M128 768v768h128v256h128v256h512v-256h-384v-256h-128v-768h128v-256h384v-256h-512v256h-128v256h-128z" unicode="C"/><glyph d="M128 256v1792h512v-256h128v-256h128v-768h-128v-256h-128v-256h-512zM384 512h128v256h128v768h-128v256h-128v-1280z" unicode="D"/><glyph d="M128 256v1792h768v-256h-512v-512h256v-256h-256v-512h512v-256h-768z" unicode="E"/><glyph d="M128 256v1792h768v-256h-512v-512h256v-256h-256v-768h-256z" unicode="F"/><glyph d="M128 512v1280h128v256h512v-256h128v-256h-256v256h-256v-1280h256v512h-128v256h384v-1024h-640v256h-128z" unicode="G"/><glyph d="M128 256v1792h256v-768h256v768h256v-1792h-256v768h-256v-768h-256z" unicode="H"/><glyph d="M256 256v256h128v1280h-128v256h512v-256h-128v-1280h128v-256h-512z" unicode="I"/><glyph d="M128 512v256h256v-256h256v1536h256v-1536h-128v-256h-512v256h-128z" unicode="J"/><glyph d="M0 256v1792h256v-768h128v256h128v256h128v256h256v-256h-128v-256h-128v-256h-128v-256h128v-256h128v-256h128v-256h-256v256h-128v256h-128v256h-128v-768h-256z" unicode="K"/><glyph d="M128 256v1792h256v-1536h512v-256h-768z" unicode="L"/><glyph d="M0 256v1792h256v-256h128v-256h128v256h128v256h256v-1792h-256v1024h-128v-256h-128v256h-128v-1024h-256z" unicode="M"/><glyph d="M0 256v1792h256v-256h128v-256h128v-256h128v768h256v-1792h-256v512h-128v256h-128v256h-128v-1024h-256z" unicode="N"/><glyph d="M128 512v1280h128v256h512v-256h128v-1280h-128v-256h-512v256h-128zM384 512h256v1280h-256v-1280z" unicode="O"/><glyph d="M128 256v1792h640v-256h128v-512h-128v-256h-384v-768h-256zM384 1280h256v512h-256v-512z" unicode="P"/><glyph d="M0 512v1280h128v256h512v-256h128v-1280h128v-256h-768v256h-128zM256 512h128v256h128v1024h-256v-1280z" unicode="Q"/><glyph d="M128 256v1792h640v-256h128v-512h-128v-512h128v-512h-256v512h-128v256h-128v-768h-256zM384 1280h256v512h-256v-512z" unicode="R"/><glyph d="M128 512v256h256v-256h256v256h-128v256h-256v256h-128v512h128v256h512v-256h128v-256h-256v256h-256v-256h128v-256h256v-256h128v-512h-128v-256h-512v256h-128z" unicode="S"/><glyph d="M128 1792v256h768v-256h-256v-1536h-256v1536h-256z" unicode="T"/><glyph d="M128 512v1536h256v-1536h256v1536h256v-1536h-128v-256h-512v256h-128z" unicode="U"/><glyph d="M128 1024v1024h256v-1024h256v1024h256v-1024h-128v-512h-128v-256h-256v256h-128v512h-128z" unicode="V"/><glyph d="M0 256v1792h256v-1024h128v256h128v-256h128v1024h256v-1792h-256v256h-128v256h-128v-256h-128v-256h-256z" unicode="W"/><glyph d="M0 256v256h128v256h128v256h128v256h-128v256h-128v256h-128v256h256v-256h128v-256h256v256h128v256h256v-256h-128v-256h-128v-256h-128v-256h128v-256h128v-256h128v-256h-256v256h-128v256h-256v-256h-128v-256h-256z" unicode="X"/><glyph d="M0 1792v256h256v-256h128v-256h256v256h128v256h256v-256h-128v-256h-128v-256h-128v-1024h-256v1024h-128v256h-128v256h-128z" unicode="Y"/><glyph d="M0 256v512h128v256h128v256h128v256h128v256h-512v256h896v-256h-128v-256h-128v-256h-128v-256h-128v-256h-128v-256h640v-256h-896z" unicode="Z"/><glyph d="M256 256v1792h512v-128h256v-128h-512v-1280h512v-128h-256v-128h-512z" unicode="["/><glyph d="M0 1792v256h256v-256h128v-256h128v-256h128v-256h128v-256h128v-256h128v-512h-128v256h-128v256h-128v256h-128v256h-128v256h-128v256h-128v256h-128z" unicode="\"/><glyph d="M0 384v128h512v1280h-512v128h256v128h512v-1792h-512v128h-256z" unicode="]"/><glyph d="M0 1024v256h128v256h128v256h128v256h128v-256h128v-256h128v-256h128v-256h-256v256h-128v256h-128v-256h-128v-256h-256z" unicode="^"/><glyph d="M0 0v256h1024v-256h-1024z" unicode="_"/><glyph d="M384 1536v512h256v-512h128v-256h-256v256h-128z" unicode="`"/><glyph d="M128 512v256h128v256h384v256h-384v256h512v-256h128v-1024h-640v256h-128zM384 512h256v256h-256v-256z" unicode="a"/><glyph d="M128 256v1792h256v-512h384v-256h128v-768h-128v-256h-640zM384 512h256v768h-256v-768z" unicode="b"/><glyph d="M128 512v768h128v256h512v-256h-384v-768h384v-256h-512v256h-128z" unicode="c"/><glyph d="M128 512v768h128v256h384v512h256v-1792h-640v256h-128zM384 512h256v768h-256v-768z" unicode="d"/><glyph d="M128 512v768h128v256h512v-256h128v-512h-512v-256h384v-256h-512v256h-128zM384 1024h256v256h-256v-256z" unicode="e"/><glyph d="M128 1280v256h128v256h128v256h384v-256h-256v-256h256v-256h-256v-1024h-256v1024h-128z" unicode="f"/><glyph d="M128 768v512h128v256h640v-1280h-128v-256h-512v256h384v256h-384v256h-128zM384 768h256v512h-256v-512z" unicode="g"/><glyph d="M128 256v1792h256v-512h384v-256h128v-1024h-256v1024h-256v-1024h-256z" unicode="h"/><glyph d="M384 512v1024h256v-1024h128v-256h-256v256h-128zM384 1792v256h256v-256h-256z" unicode="i"/><glyph d="M128 0v256h384v1280h256v-1280h-128v-256h-512zM512 1792v256h256v-256h-256z" unicode="j"/><glyph d="M128 256v1792h256v-1024h128v256h128v256h256v-256h-128v-256h-128v-256h128v-256h128v-256h-256v256h-128v256h-128v-512h-256z" unicode="k"/><glyph d="M384 512v1536h256v-1536h128v-256h-256v256h-128z" unicode="l"/><glyph d="M0 256v1280h384v-256h128v256h256v-256h128v-1024h-256v768h-128v-256h-128v256h-128v-768h-256z" unicode="m"/><glyph d="M128 256v1280h640v-256h128v-1024h-256v1024h-256v-1024h-256z" unicode="n"/><glyph d="M128 512v768h128v256h512v-256h128v-768h-128v-256h-512v256h-128zM384 512h256v768h-256v-768z" unicode="o"/><glyph d="M128 0v1536h640v-256h128v-512h-128v-256h-384v-512h-256zM384 768h256v512h-256v-512z" unicode="p"/><glyph d="M128 768v512h128v256h640v-1536h-256v512h-384v256h-128zM384 768h256v512h-256v-512z" unicode="q"/><glyph d="M128 256v1280h640v-256h128v-256h-256v256h-256v-1024h-256z" unicode="r"/><glyph d="M128 256v256h512v256h-384v256h-128v256h128v256h512v-256h-384v-256h384v-256h128v-256h-128v-256h-640z" unicode="s"/><glyph d="M128 1280v256h128v512h256v-512h256v-256h-256v-768h256v-256h-384v256h-128v768h-128z" unicode="t"/><glyph d="M128 512v1024h256v-1024h256v1024h256v-1280h-640v256h-128z" unicode="u"/><glyph d="M128 768v768h256v-768h256v768h256v-768h-128v-256h-128v-256h-256v256h-128v256h-128z" unicode="v"/><glyph d="M0 512v1024h256v-768h128v282h128v-282h128v768h256v-1024h-128v-256h-256v256h-128v-256h-256v256h-128z" unicode="w"/><glyph d="M0 256v256h128v256h128v256h-128v256h-128v256h256v-256h128v-256h128v256h128v256h256v-256h-128v-256h-128v-256h128v-256h128v-256h-256v256h-128v256h-128v-256h-128v-256h-256z" unicode="x"/><glyph d="M128 768v768h256v-768h256v768h256v-768h-128v-256h-128v-256h-128v-256h-256v256h128v256h-128v256h-128z" unicode="y"/><glyph d="M128 256v256h128v256h128v256h128v256h-384v256h768v-256h-128v-256h-128v-256h-128v-256h384v-256h-768z" unicode="z"/><glyph d="M128 1024v256h256v512h128v256h384v-128h128v-256h-128v128h-256v-512h-128v-256h128v-512h256v128h128v-256h-128v-128h-384v256h-128v512h-256z" unicode="{"/><glyph d="M384 0v2048h256v-2048h-256z" unicode="|"/><glyph d="M0 384v256h128v-128h256v512h128v256h-128v512h-256v-128h-128v256h128v128h384v-256h128v-512h256v-256h-256v-512h-128v-256h-384v128h-128z" unicode="}"/><glyph d="M0 1536v256h128v-256h-128zM128 1792v256h384v-256h256v-256h-384v256h-256zM768 1792v256h128v-256h-128z" unicode="~"/><glyph d="M0 256v256h256v256h256v256h256v256h256v-512h-256v-256h-256v-256h-512zM0 1024v512h256v256h256v256h512v-256h-256v-256h-256v-256h-256v-256h-256z"/><glyph d="M0 0v2048h512v-256h-128v-256h-128v-256h-128v-1024h256v640h256v-640h256v1024h-128v256h-128v256h128v256h256v-2048h-1024zM384 1024v256h256v-256h-256z"/><glyph d="M0 0v2048h384v-256h256v-256h-256v256h-256v-256h128v-256h-128v-1024h256v640h256v-640h256v1024h-128v256h128v256h-256v256h384v-2048h-1024zM384 1024v256h256v-256h-256z"/><glyph d="M0 0v1536h128v256h-128v256h128v-256h384v-256h-256v-256h-128v-1024h256v640h256v-640h256v1024h-128v256h128v256h-384v256h384v-256h128v-1792h-1024zM384 1024v256h256v-256h-256z"/><glyph d="M0 0v2048h128v-256h256v256h256v-256h256v256h128v-2048h-1024zM128 256h256v640h256v-640h256v1024h-128v256h-512v-256h-128v-1024zM384 1024v256h256v-256h-256z"/><glyph d="M0 0v2048h384v-256h256v-256h-256v256h-128v-512h-128v-1024h256v640h256v-640h256v1024h-128v512h-128v256h384v-2048h-1024zM384 1024v256h256v-256h-256z" unicode=""/><glyph d="M0 0v256h256v512h256v-512h512v-256h-1024zM0 768v1280h384v-256h-128v-512h-128v-512h-128zM384 1024v256h128v-256h-128zM768 512v512h256v-512h-256zM768 1280v512h256v-512h-256z"/><glyph d="M0 0v2048h384v-256h-128v-256h-128v-512h128v-256h128v-256h128v-256h-128v-256h-384zM384 1024v512h128v256h384v256h128v-2048h-384v256h128v256h128v256h-384v256h-128z"/><glyph d="M0 0v2048h256v-256h128v-256h-256v-1280h768v256h-512v256h256v256h-256v256h512v256h-256v256h-128v256h512v-2048h-1024z"/><glyph d="M0 0v2048h512v-256h-128v-256h-256v-1280h768v256h-512v256h256v256h-256v256h512v256h-256v256h128v256h256v-2048h-1024z"/><glyph d="M0 0v2048h384v-256h256v-256h-256v256h-256v-1536h768v256h-512v256h256v256h-256v256h512v512h-256v256h384v-2048h-1024z"/><glyph d="M0 0v2048h128v-256h256v256h256v-256h256v256h128v-2048h-1024zM128 256h768v256h-512v256h256v256h-256v256h512v256h-768v-1280z"/><glyph d="M0 0v2048h256v-256h128v-256h-128v-256h128v-768h-128v-256h512v256h-128v768h128v256h-128v256h-128v256h512v-2048h-1024z"/><glyph d="M0 0v256h256v768h128v-256h128v-256h128v-256h256v1536h128v-1792h-1024zM0 1792v256h128v-256h-128zM256 1536v256h256v-256h128v-512h-128v256h-128v256h-128zM512 1792v256h384v-256h-384z"/><glyph d="M0 0v2048h256v-256h128v-256h-128v-256h-128v-768h128v-256h512v256h128v768h-128v256h-128v256h-128v256h512v-2048h-1024zM384 512v768h256v-768h-256z"/><glyph d="M0 0v2048h512v-256h-128v-256h-128v-256h-128v-768h128v-256h512v256h128v768h-128v256h-128v256h128v256h256v-2048h-1024zM384 512v768h256v-768h-256z"/><glyph d="M0 0v2048h384v-256h256v-256h-256v256h-256v-256h128v-256h-128v-768h128v-256h512v256h128v768h-128v256h128v256h-256v256h384v-2048h-1024zM384 512v768h256v-768h-256z"/><glyph d="M0 0v1536h128v256h-128v256h128v-256h384v-256h-256v-256h-128v-768h128v-256h512v256h128v768h-128v256h128v256h-384v256h384v-256h128v-1792h-1024zM384 512v768h256v-768h-256z"/><glyph d="M0 0v1792h256v-256h-128v-1024h128v-256h512v256h128v1024h-128v256h256v-1792h-1024zM256 1792v256h512v-256h-512zM384 512v1024h256v-1024h-256z"/><glyph d="M0 0v512h256v256h128v256h128v-256h128v-256h256v256h-128v256h-128v256h128v256h128v256h-256v-256h-128v-256h-99v256h-157v256h-256v256h1024v-2048h-1024zM0 768v768h128v-256h128v-256h-128v-256h-128z"/><glyph d="M0 0v256h768v256h128v1280h128v-1792h-1024zM0 512v1536h256v-256h-128v-1280h-128zM384 512v256h128v256h128v-512h-256zM384 1280v512h256v-256h-128v-256h-128z"/><glyph d="M0 0v2048h256v-256h128v-256h256v-1024h-256v1024h-256v-1024h128v-256h512v256h128v1024h-256v256h-128v256h512v-2048h-1024z"/><glyph d="M0 0v2048h512v-256h-128v-256h256v-1024h-256v1024h-256v-1024h128v-256h512v256h128v1024h-256v256h128v256h256v-2048h-1024z"/><glyph d="M0 0v2048h384v-256h256v-1280h-256v1280h-128v-256h-128v-1024h128v-256h512v256h128v1024h-128v256h-128v256h384v-2048h-1024z"/><glyph d="M0 0v2048h128v-256h256v256h256v-256h256v256h128v-2048h-1024zM128 512h128v-256h512v256h128v1024h-256v-1024h-256v1024h-256v-1024z"/><glyph d="M0 0v2048h256v-256h-128v-1792h-128zM384 0v1792h256v-512h-128v-256h128v-512h-128v-256h256v256h128v512h-128v256h128v512h-128v256h256v-2048h-640z"/><glyph d="M0 256v1792h1024v-2048h-128v256h-896z"/><glyph d="M384 256v1280h256v-1280h-256zM384 1792v256h256v-256h-256z" unicode="¡"/><glyph d="M128 1024v256h128v256h256v256h256v-256h128v-256h-128v-256h128v-256h-128v-256h-256v256h-256v256h-128zM384 1024h128v256h-128v-256z" unicode="¢"/><glyph d="M128 256v256h128v512h-128v256h128v512h128v256h384v-256h128v-256h-256v256h-128v-512h128v-256h-128v-512h384v-256h-768z" unicode="£"/><glyph d="M128 768v256h128v-256h-128zM128 1280v256h128v256h-128v256h128v-256h512v-256h128v-256h-128v-256h128v-256h-128v256h-512v256h-128zM384 1280h256v256h-256v-256zM768 1792v256h128v-256h-128z" unicode="¤"/><glyph d="M0 1792v256h256v-256h128v-256h256v256h128v256h256v-256h-128v-256h-128v-256h-128v-256h128v-256h-128v-512h-256v512h-128v256h128v256h-128v256h-128v256h-128z" unicode="¥"/><glyph d="M384 1280v768h256v-768h-256zM385 256v768h256v-768h-256z" unicode="¦"/><glyph d="M128 1024v256h128v256h-128v256h128v256h512v-256h-384v-256h384v-256h128v-256h-128v-256h128v-256h-128v-256h-512v256h384v256h-384v256h-128zM384 1024h256v256h-256v-256z" unicode="§"/><glyph d="M128 1536v512h256v-512h-256zM640 1536v512h256v-512h-256z" unicode="¨"/><glyph d="M0 512v1280h128v-1280h768v-256h-768v256h-128zM128 1792v256h768v-256h128v-1280h-128v1280h-768zM256 1024v256h128v256h384v-256h-256v-256h256v-256h-384v256h-128z" unicode="©"/><glyph d="M128 512v256h768v-256h-768zM128 1280v256h128v-256h384v512h-256v256h384v-1024h-512v256h-128zM256 1536v256h128v-256h-128z" unicode="ª"/><glyph d="M0 1024v256h128v256h128v256h256v-256h-128v-256h-128v-256h128v-256h128v-256h-256v256h-128v256h-128zM512 1024v256h128v256h128v256h256v-256h-128v-256h-128v-256h128v-256h128v-256h-256v256h-128v256h-128z" unicode="«"/><glyph d="M0 1920v128h768v-128h256v-384h-256v256h-512v128h-256z" unicode="¬"/><glyph d="M128 1024v256h768v-256h-768z" unicode="­"/><glyph d="M0 256v1536h128v-1536h768v-256h-768v256h-128zM128 1792v256h768v-256h128v-1536h-128v1536h-768zM256 512v1024h384v-256h128v-256h-128v-256h128v-256h-128v256h-256v-256h-128zM384 1024h256v256h-256v-256z" unicode="®"/><glyph d="M0 1792v256h1024v-256h-1024z" unicode="¯"/><glyph d="M128 1536v256h128v256h512v-256h128v-256h-128v-256h-512v256h-128zM384 1536h256v256h-256v-256z" unicode="°"/><glyph d="M128 256v256h768v-256h-768zM128 1280v256h256v512h256v-512h256v-256h-256v-512h-256v512h-256z" unicode="±"/><glyph d="M128 768v256h128v256h128v256h128v256h-384v256h512v-256h128v-256h-128v-256h-128v-256h256v-256h-640z" unicode="²"/><glyph d="M128 768v256h384v256h-128v256h128v256h-384v256h512v-256h128v-256h-128v-256h128v-256h-128v-256h-512z" unicode="³"/><glyph d="M128 1280v256h128v279h128v233h256v-256h-128v-256h-128v-256h-256z" unicode="´"/><glyph d="M128 0v1536h256v-1024h256v1024h256v-1024h128v-256h-640v-256h-256z" unicode="µ"/><glyph d="M128 1408v384h128v256h640v-1792h-128v1536h-128v-1536h-128v896h-256v256h-128z" unicode="¶"/><glyph d="M384 1280v512h256v-512h-256z" unicode="·"/><glyph d="M256 0v256h128v256h256v-256h-128v-256h-256z" unicode="¸"/><glyph d="M128 1536v256h128v256h256v-1280h-256v768h-128z" unicode="¹"/><glyph d="M128 512v256h640v-256h-640zM128 1280v512h128v-512h384v-256h-384v256h-128zM256 1792v256h384v-256h128v-512h-128v512h-384z" unicode="º"/><glyph d="M0 512v256h128v256h128v256h-128v256h-128v256h256v-256h128v-256h128v-256h-128v-256h-128v-256h-256zM512 512v256h128v256h128v256h-128v256h-128v256h256v-256h128v-256h128v-256h-128v-256h-128v-256h-256z" unicode="»"/><glyph d="M0 256v256h128v256h128v256h-128v512h-128v256h128v256h128v-1024h128v256h128v256h128v256h256v-256h-128v-256h-128v-256h-128v-256h-128v-256h-128v-256h-256zM512 256v128h128v256h128v256h128v-512h128v-128h-128v-256h-128v256h-256z" unicode="¼"/><glyph d="M0 256v256h128v256h128v256h-128v512h-128v256h128v256h128v-1024h128v256h128v256h128v256h256v-256h-128v-256h-128v-256h256v-512h-128v256h-384v-256h-128v-256h-256zM512 0v256h128v256h128v-256h128v-256h-384z" unicode="½"/><glyph d="M0 896v128h256v-128h-256zM0 1792v256h256v-256h128v-768h128v256h128v256h128v256h256v-256h-128v-256h-128v-256h-128v-256h-128v-256h-128v-256h-256v256h128v256h128v256h-128v256h-128v256h128v256h-256zM512 256v128h128v256h128v256h128v-512h128v-128h-128v-256 h-128v256h-256z" unicode="¾"/><glyph d="M128 512v512h128v256h128v256h256v-256h-128v-256h-128v-512h256v256h256v-256h-128v-256h-512v256h-128zM384 1792v256h256v-256h-256z" unicode="¿"/><glyph d="M128 256v1024h128v256h128v256h-128v256h256v-256h128v-256h128v-256h128v-1024h-256v512h-256v-512h-256zM384 1024h256v256h-256v-256z" unicode="À"/><glyph d="M128 256v1024h128v256h128v256h128v256h256v-256h-128v-256h128v-256h128v-1024h-256v512h-256v-512h-256zM384 1024h256v256h-256v-256z" unicode="Á"/><glyph d="M128 256v1024h128v256h-128v256h256v-256h256v256h-256v256h256v-256h256v-256h-128v-256h128v-1024h-256v512h-256v-512h-256zM384 1024h256v256h-256v-256z" unicode="Â"/><glyph d="M0 1536v256h128v-256h-128zM128 256v1024h128v256h256v256h-384v256h384v-256h384v-256h-128v-256h128v-1024h-256v512h-256v-512h-256zM384 1024h256v256h-256v-256zM896 1792v256h128v-256h-128z" unicode="Ã"/><glyph d="M128 256v1024h128v256h512v-256h128v-1024h-256v512h-256v-512h-256zM128 1792v256h256v-256h-256zM384 1024h256v256h-256v-256zM640 1792v256h256v-256h-256z" unicode="Ä"/><glyph d="M128 256v1024h128v512h128v-256h256v256h-256v256h256v-256h128v-512h128v-1024h-256v512h-256v-512h-256zM384 1024h256v256h-256v-256z" unicode="Å"/><glyph d="M0 256v512h128v512h128v512h128v256h640v-256h-256v-512h256v-256h-256v-512h256v-256h-512v512h-256v-512h-256zM384 1024h128v256h-128v-256z" unicode="Æ"/><glyph d="M128 1024v512h128v256h128v256h512v-256h-384v-256h-128v-512h128v-256h384v-256h-128v-256h-128v-256h-256v256h128v256h-128v256h-128v256h-128z" unicode="Ç"/><glyph d="M128 256v1280h256v256h-128v256h256v-256h128v-256h256v-256h-512v-256h256v-256h-256v-256h512v-256h-768z" unicode="È"/><glyph d="M128 256v1280h256v256h128v256h256v-256h-128v-256h256v-256h-512v-256h256v-256h-256v-256h512v-256h-768z" unicode="É"/><glyph d="M128 256v1536h256v-256h256v256h-256v256h256v-256h256v-512h-512v-256h256v-256h-256v-256h512v-256h-768z" unicode="Ê"/><glyph d="M127 256v1280h768v-256h-512v-256h256v-256h-256v-256h512v-256h-768zM128 1792v256h256v-256h-256zM640 1792v256h256v-256h-256z" unicode="Ë"/><glyph d="M256 256v256h128v768h-128v256h128v256h-128v256h256v-256h128v-256h128v-256h-128v-768h128v-256h-512z" unicode="Ì"/><glyph d="M256 256v256h128v768h-128v256h128v256h128v256h256v-256h-128v-256h128v-256h-128v-768h128v-256h-512z" unicode="Í"/><glyph d="M128 1536v256h256v-256h256v256h-256v256h256v-256h256v-256h-128v-256h-128v-768h128v-256h-512v256h128v768h-128v256h-128z" unicode="Î"/><glyph d="M128 1792v256h256v-256h-256zM256 256v256h128v768h-128v256h512v-256h-128v-768h128v-256h-512zM640 1792v256h256v-256h-256z" unicode="Ï"/><glyph d="M0 1024v256h128v768h512v-256h128v-256h128v-768h-128v-256h-128v-256h-512v768h-128zM384 512h128v256h128v768h-128v256h-128v-512h128v-256h-128v-512z" unicode="Ð"/><glyph d="M0 256v1536h128v256h384v-256h384v-1536h-256v256h-128v256h-128v256h-128v-768h-256zM256 1536h128v-256h128v-256h128v512h-128v256h-256v-256zM896 1792v256h128v-256h-128z" unicode="Ñ"/><glyph d="M128 512v768h128v256h128v256h-128v256h256v-256h128v-256h128v-256h128v-768h-128v-256h-512v256h-128zM384 512h256v768h-256v-768z" unicode="Ò"/><glyph d="M128 512v768h128v256h128v256h128v256h256v-256h-128v-256h128v-256h128v-768h-128v-256h-512v256h-128zM384 512h256v768h-256v-768z" unicode="Ó"/><glyph d="M128 512v768h128v256h-128v256h256v-256h256v256h-256v256h256v-256h256v-256h-128v-256h128v-768h-128v-256h-512v256h-128zM384 512h256v768h-256v-768z" unicode="Ô"/><glyph d="M0 1536v256h128v-256h-128zM128 512v768h128v256h256v256h-384v256h384v-256h384v-256h-128v-256h128v-768h-128v-256h-512v256h-128zM384 512h256v768h-256v-768zM896 1792v256h128v-256h-128z" unicode="Õ"/><glyph d="M0 1792v256h256v-256h-256zM128 512v1024h128v256h512v-256h128v-1024h-128v-256h-512v256h-128zM384 512h256v1024h-256v-1024zM768 1792v256h256v-256h-256z" unicode="Ö"/><glyph d="M0 512v256h128v256h128v256h-128v256h-128v256h256v-256h128v-256h128v256h128v256h256v-256h-128v-256h-128v-256h128v-256h128v-256h-256v256h-128v256h-128v-256h-128v-256h-256z" unicode="×"/><glyph d="M0 256v256h128v1280h128v256h768v-256h-128v-1280h-128v-256h-768zM384 512h256v512h-128v-256h-128v-256zM384 1280h128v256h128v256h-256v-512z" unicode="Ø"/><glyph d="M128 512v1024h256v256h-128v256h256v-256h128v-256h256v-1024h-128v-256h-512v256h-128zM384 512h256v1024h-256v-1024z" unicode="Ù"/><glyph d="M128 512v1024h256v256h128v256h256v-256h-128v-256h256v-1024h-128v-256h-512v256h-128zM384 512h256v1024h-256v-1024z" unicode="Ú"/><glyph d="M128 512v1024h128v256h128v-1280h256v1280h-256v256h256v-256h128v-256h128v-1024h-128v-256h-512v256h-128z" unicode="Û"/><glyph d="M128 512v1024h256v-1024h256v1024h256v-1024h-128v-256h-512v256h-128zM128 1792v256h256v-256h-256zM640 1792v256h256v-256h-256z" unicode="Ü"/><glyph d="M0 1280v256h256v-256h128v-256h256v256h128v256h256v-256h-128v-256h-128v-256h-128v-512h-256v512h-128v256h-128v256h-128zM512 1536v256h128v-256h-128zM640 1792v256h256v-256h-256z" unicode="Ý"/><glyph d="M0 256v1792h256v-512h512v-256h128v-256h-128v-256h-512v-512h-256zM256 1024h384v256h-384v-256z" unicode="Þ"/><glyph d="M128 0v1792h128v256h512v-256h128v-512h-128v-256h128v-512h-128v-256h-256v256h128v512h-128v256h128v512h-256v-1792h-256z" unicode="ß"/><glyph d="M128 512v256h128v256h384v256h-384v256h128v256h-128v256h256v-256h128v-256h128v-256h128v-1024h-640v256h-128zM384 512h256v256h-256v-256z" unicode="à"/><glyph d="M128 512v256h128v256h384v256h-384v256h128v256h128v256h256v-256h-128v-256h128v-256h128v-1024h-640v256h-128zM384 512h256v256h-256v-256z" unicode="á"/><glyph d="M128 512v256h128v256h384v256h-384v256h-128v256h256v-256h256v256h-256v256h256v-256h256v-256h-128v-256h128v-1024h-640v256h-128zM384 512h256v256h-256v-256z" unicode="â"/><glyph d="M0 1536v256h128v-256h-128zM128 512v256h128v256h384v256h-384v256h256v256h-384v256h384v-256h384v-256h-128v-256h128v-1024h-640v256h-128zM384 512h256v256h-256v-256zM896 1792v256h128v-256h-128z" unicode="ã"/><glyph d="M128 512v256h128v256h384v256h-384v256h512v-256h128v-1024h-640v256h-128zM128 1792v256h256v-256h-256zM384 512h256v256h-256v-256zM640 1792v256h256v-256h-256z" unicode="ä"/><glyph d="M128 512v256h128v256h384v256h-384v512h128v-256h256v256h-256v256h256v-256h128v-512h128v-1024h-640v256h-128zM384 512h256v256h-256v-256z" unicode="å"/><glyph d="M0 512v256h128v256h256v256h-256v256h768v-256h128v-512h-384v-256h384v-256h-384v256h-128v-256h-384v256h-128zM256 512h128v256h-128v-256zM640 1024h128v256h-128v-256z" unicode="æ"/><glyph d="M128 512v768h128v256h512v-256h-384v-768h384v-256h-128v-256h-256v256h-128v256h-128z" unicode="ç"/><glyph d="M128 512v768h128v256h128v256h-128v256h256v-256h128v-256h128v-256h128v-512h-512v-256h384v-256h-512v256h-128zM384 1024h256v256h-256v-256z" unicode="è"/><glyph d="M128 512v768h128v256h128v256h128v256h256v-256h-128v-256h128v-256h128v-512h-512v-256h384v-256h-512v256h-128zM384 1024h256v256h-256v-256z" unicode="é"/><glyph d="M128 512v768h128v256h-128v256h256v-256h256v256h-256v256h256v-256h256v-256h-128v-256h128v-512h-512v-256h384v-256h-512v256h-128zM384 1024h256v256h-256v-256z" unicode="ê"/><glyph d="M128 512v768h128v256h512v-256h128v-512h-512v-256h384v-256h-512v256h-128zM128 1792v256h256v-256h-256zM384 1024h256v256h-256v-256zM640 1792v256h256v-256h-256z" unicode="ë"/><glyph d="M256 1792v256h256v-256h128v-256h-256v256h-128zM384 512v768h256v-768h128v-256h-256v256h-128z" unicode="ì"/><glyph d="M383 512v768h256v-768h128v-256h-256v256h-128zM383 1536v256h128v256h257v-256h-129v-256h-256z" unicode="í"/><glyph d="M128 1536v256h256v-256h-256zM384 512v768h256v-768h128v-256h-256v256h-128zM384 1792v256h256v-256h256v-256h-256v256h-256z" unicode="î"/><glyph d="M128 1536v256h256v-256h-256zM384 512v768h256v-768h128v-256h-256v256h-128zM640 1536v256h256v-256h-256z" unicode="ï"/><glyph d="M0 1536v256h128v256h256v-256h384v-256h-128v-256h128v-256h128v-512h-128v-256h-512v256h-128v512h128v256h128v256h-384zM384 512h256v512h-256v-512z" unicode="ð"/><glyph d="M0 1536v256h128v-256h-128zM128 256v1024h640v-256h128v-768h-256v768h-256v-768h-256zM128 1792v256h384v-256h384v-256h-384v256h-384zM896 1792v256h128v-256h-128z" unicode="ñ"/><glyph d="M128 512v512h128v256h512v-256h128v-512h-128v-256h-512v256h-128zM256 1792v256h256v-256h128v-256h-256v256h-128zM384 512h256v512h-256v-512z" unicode="ò"/><glyph d="M128 512v512h128v256h512v-256h128v-512h-128v-256h-512v256h-128zM384 512h256v512h-256v-512zM384 1536v256h128v256h256v-256h-128v-256h-256z" unicode="ó"/><glyph d="M128 512v512h128v256h512v-256h128v-512h-128v-256h-512v256h-128zM128 1536v256h256v-256h-256zM384 512h256v512h-256v-512zM384 1792v256h256v-256h256v-256h-256v256h-256z" unicode="ô"/><glyph d="M0 1536v256h128v-256h-128zM128 512v512h128v256h512v-256h128v-512h-128v-256h-512v256h-128zM128 1792v256h384v-256h384v-256h-384v256h-384zM384 512h256v512h-256v-512zM896 1792v256h128v-256h-128z" unicode="õ"/><glyph d="M128 512v512h128v256h512v-256h128v-512h-128v-256h-512v256h-128zM128 1536v256h256v-256h-256zM384 512h256v512h-256v-512zM640 1536v256h256v-256h-256z" unicode="ö"/><glyph d="M128 1024v256h768v-256h-768zM384 512v256h256v-256h-256zM384 1536v256h256v-256h-256z" unicode="÷"/><glyph d="M0 0v256h128v-256h-128zM0 512v768h128v256h640v-256h128v-768h-128v-256h-640v256h-128zM256 768h128v-256h256v512h-128v256h-256v-512zM384 768v256h128v-256h-128zM768 1536v256h128v-256h-128z" unicode="ø"/><glyph d="M128 512v768h256v-768h256v768h256v-1024h-640v256h-128zM256 1792v256h256v-256h128v-256h-256v256h-128z" unicode="ù"/><glyph d="M128 512v768h256v-768h256v768h256v-1024h-640v256h-128zM384 1536v256h128v256h256v-256h-128v-256h-256z" unicode="ú"/><glyph d="M128 512v768h256v-768h256v768h256v-1024h-640v256h-128zM128 1536v256h256v-256h-256zM384 1792v256h256v-256h256v-256h-256v256h-256z" unicode="û"/><glyph d="M128 512v768h256v-768h256v768h256v-1024h-640v256h-128zM128 1536v256h256v-256h-256zM640 1536v256h256v-256h-256z" unicode="ü"/><glyph d="M128 768v512h256v-512h256v512h256v-512h-128v-256h-128v-256h-128v-256h-256v256h128v256h-128v256h-128zM384 1536v256h128v256h256v-256h-128v-256h-256z" unicode="ý"/><glyph d="M128 0v2048h256v-512h513v-256h128v-512h-128v-256h-513v-512h-256zM384 768h385v512h-385v-512z" unicode="þ"/><glyph d="M128 768v512h256v-512h256v512h256v-512h-128v-256h-128v-256h-128v-256h-256v256h128v256h-128v256h-128zM128 1536v256h256v-256h-256zM640 1536v256h256v-256h-256z" unicode="ÿ"/><glyph/><glyph horiz-adv-x="2048"/><glyph/><glyph horiz-adv-x="2048"/><glyph horiz-adv-x="682"/><glyph horiz-adv-x="512"/><glyph horiz-adv-x="341"/><glyph horiz-adv-x="341"/><glyph horiz-adv-x="256"/><glyph horiz-adv-x="409"/><glyph horiz-adv-x="113"/><glyph d="M0 1024v256h1024v-256h-1024z" unicode="‐"/><glyph d="M0 1024v256h1024v-256h-1024z" unicode="‑"/><glyph d="M0 1024v256h1024v-256h-1024z" unicode="‒"/><glyph d="M0 1024v256h1024v-256h-1024z" unicode="–"/><glyph d="M0 1024v256h2048v-256h-2048z" horiz-adv-x="2048" unicode="—"/><glyph horiz-adv-x="409"/><glyph horiz-adv-x="512"/><glyph d="M0 0v1536h1536v-1536h-1536z" horiz-adv-x="1536" unicode="◼"/><glyph d="M0 0v2048h512v-256h-128v-256h-128v-256h128v-768h-128v-256h512v256h-128v768h128v256h-128v256h128v256h256v-2048h-1024z"/><glyph d="M0 0v2048h384v-256h256v-256h-256v256h-256v-256h128v-256h128v-768h-128v-256h512v256h-128v768h128v256h128v256h-256v256h384v-2048h-1024z"/><glyph d="M0 0v2048h128v-256h256v256h256v-256h256v256h128v-2048h-1024zM256 256h512v256h-128v768h128v256h-512v-256h128v-768h-128v-256z"/><glyph d="M0 0v1024h128v-768h512v256h128v256h128v768h-128v256h-128v256h384v-2048h-1024zM0 1280v768h128v-768h-128zM384 512v512h128v256h-128v512h128v-256h128v-768h-128v-256h-128z"/><glyph d="M0 0v1280h128v-256h128v-256h128v-512h256v512h128v256h128v256h128v-1280h-1024zM0 1536v512h640v-256h256v256h128v-512h-256v-256h-128v-256h-256v256h-128v256h-256zM512 1536v256h128v-256h-128z"/><glyph d="M0 0v256h256v512h512v256h128v256h-128v256h-512v512h768v-2048h-1024zM256 1024v256h384v-256h-384z"/><glyph d="M128 1280v512h128v256h640v-1792h-128v1536h-128v-1536h-128v768h-256v256h-128z"/><glyph d="M0 0v2048h256v-256h-128v-1536h256v768h256v-768h256v1536h-128v256h256v-2048h-1024zM384 1280v512h256v-512h-256z"/><glyph d="M0 0v2048h384v-256h-128v-256h-128v-768h128v-256h128v-256h512v256h-384v256h-128v768h128v256h384v256h128v-2048h-1024z"/><glyph d="M0 0v2048h128v-1792h512v256h128v256h128v768h-128v256h-128v256h384v-2048h-1024zM384 512v1280h128v-256h128v-768h-128v-256h-128z"/><glyph d="M0 0v2048h128v-1792h768v256h-512v512h256v256h-256v512h512v256h128v-2048h-1024z"/><glyph d="M0 0v2048h1024v-2048h-1024zM128 256h256v768h256v256h-256v512h512v256h-768v-1792z"/><glyph d="M0 0v2048h256v-256h-128v-1280h128v-256h640v1024h-384v-256h128v-512h-256v1280h256v-256h256v256h-128v256h256v-2048h-1024z"/><glyph d="M0 0v2048h128v-1792h256v768h256v-768h256v1792h128v-2048h-1024zM384 1280v768h256v-768h-256z"/><glyph d="M0 0v2048h128v-1792h256v768h128v-256h128v-256h128v-256h256v-256h-1024zM384 1280v768h384v-256h-128v-256h-128v-256h-128zM640 1024v256h128v256h128v256h128v-1280h-128v256h-128v256h-128z"/><glyph d="M0 0v2048h127v-1792h768v256h-511v1536h640v-2048h-1024z"/><glyph d="M0 0v2048h128v-1792h256v1024h128v-256h128v-256h128v-512h256v-256h-1024zM384 1792v256h384v-768h-128v256h-128v256h-128z"/><glyph d="M0 0v2048h256v-256h-128v-1280h128v-256h512v256h128v1280h-128v256h256v-2048h-1024zM384 512v1280h256v-1280h-256z"/><glyph d="M0 0v2048h128v-1792h256v768h384v256h128v512h-128v256h256v-2048h-1024zM384 1280v512h256v-512h-256z"/><glyph d="M0 0v2048h256v-256h-128v-1280h128v-256h768v-256h-1024zM384 512v1280h256v-1024h-128v-256h-128zM768 1792v256h256v-1536h-128v1280h-128z"/><glyph d="M0 0v2048h128v-1792h256v768h128v-256h128v-512h256v512h-128v512h128v512h-128v256h256v-2048h-1024zM384 1280v512h256v-512h-256z"/><glyph d="M0 0v2048h256v-256h-128v-512h128v-256h256v-256h128v-256h-256v256h-256v-256h128v-256h512v256h128v512h-128v256h-256v256h-128v256h256v-256h256v256h-128v256h256v-2048h-1024z"/><glyph d="M0 0v2048h128v-256h256v-1536h256v1536h256v256h128v-2048h-1024z"/><glyph d="M0 0v2048h128v-1536h128v-256h512v256h128v1536h128v-2048h-1024zM384 512v1536h256v-1536h-256z"/><glyph d="M0 0v2048h128v-1280h128v-256h128v-256h256v256h128v256h128v1280h128v-2048h-1024zM384 896v1152h256v-1152h-256z"/><glyph d="M0 0v2048h128v-1792h256v256h128v256h128v-256h128v-256h256v-256h-1024zM384 1024v1024h384v-1024h-128v256h-128v-256h-128z"/><glyph d="M0 0v256h256v256h128v256h256v-256h128v-256h256v-256h-1024zM0 512v1280h128v-256h128v-256h128v-256h-128v-256h-128v-256h-128zM256 1792v256h512v-256h-128v-256h-256v256h-128zM640 1024v256h128v256h128v256h128v-1280h-128v256h-128v256h-128z"/><glyph d="M0 0v1792h128v-256h128v-256h128v-1024h256v1024h128v256h128v256h128v-1792h-1024zM256 1792v256h512v-256h-128v-256h-256v256h-128z"/><glyph d="M0 0v2048h128v-256h512v-256h-128v-256h-128v-256h-128v-256h-128v-512h896v-256h-1024zM384 512v256h128v256h128v256h128v256h128v256h128v-1280h-640z"/><glyph d="M0 0v2048h256v-1792h512v256h-256v1280h256v256h256v-2048h-1024z"/><glyph d="M0 0v1792h128v-256h128v-256h128v-256h128v-256h128v-256h128v-256h256v-256h-1024zM256 1792v256h768v-1536h-128v256h-128v256h-128v256h-128v256h-128v256h-128z"/><glyph d="M0 0v2048h256v-256h256v-1280h-256v-256h512v1792h256v-2048h-1024z"/><glyph d="M0 0v1024h256v256h128v256h128v-256h128v-256h256v256h-128v256h-128v256h-128v256h512v-2048h-1024zM0 1280v768h384v-256h-128v-256h-128v-256h-128z"/><glyph/><glyph d="M0 0v2048h256v-256h128v-256h-128v-256h-128v-1024h256v640h256v-640h256v1024h-128v256h-128v256h-128v256h512v-2048h-1024zM384 1024v256h256v-256h-256z"/></font>
</defs>
</svg>
