<svg xmlns="http://www.w3.org/2000/svg" xmlns:xlink="http://www.w3.org/1999/xlink" version="1.1"><metadata/><defs><font id="topaz_a500a1000a2000regular" horiz-adv-x="1024"><font-face ascent="2048" descent="0" units-per-em="2048"/><glyph/><glyph/><glyph/><glyph/><glyph/><glyph/><glyph d="M256 1280v512h128v256h256v-256h128v-512h-128v-512h-256v512h-128zM384 256v256h256v-256h-256z" unicode="!"/><glyph d="M128 1536v512h256v-512h-256zM512 1536v512h256v-512h-256z" unicode="&quot;"/><glyph d="M0 768v256h128v256h-128v256h128v512h256v-512h128v512h256v-512h128v-256h-128v-256h128v-256h-128v-512h-256v512h-128v-512h-256v512h-128zM384 1024h128v256h-128v-256z" unicode="#"/><glyph d="M128 512v256h512v256h-384v256h-128v256h128v256h128v256h256v-256h256v-256h-512v-256h384v-256h128v-256h-128v-256h-128v-256h-256v256h-256z" unicode="$"/><glyph d="M0 256v256h128v256h128v256h128v256h128v256h128v256h256v-256h-128v-256h-128v-256h-128v-256h-128v-256h-128v-256h-256zM0 1280v512h256v-512h-256zM640 256v512h256v-512h-256z" unicode="%"/><glyph d="M0 512v512h128v768h128v256h384v-256h128v-256h-128v-256h256v-256h-128v-512h128v-256h-256v256h-128v-256h-384v256h-128zM256 512h256v256h-128v256h-128v-512zM384 1280h128v512h-128v-512zM512 1024h128v256h-128v-256z" unicode="&amp;"/><glyph d="M256 1280v256h128v512h256v-512h-128v-256h-256z" unicode="'"/><glyph d="M256 768v768h128v256h128v256h256v-256h-128v-256h-128v-768h128v-256h128v-256h-256v256h-128v256h-128z" unicode="("/><glyph d="M256 256v256h128v256h128v768h-128v256h-128v256h256v-256h128v-256h128v-768h-128v-256h-128v-256h-256z" unicode=")"/><glyph d="M0 1024v256h256v256h-128v256h256v-256h256v256h256v-256h-128v-256h256v-256h-256v-256h128v-256h-256v256h-256v-256h-256v256h128v256h-256z" unicode="*"/><glyph d="M128 1024v256h256v512h256v-512h256v-256h-256v-512h-256v512h-256z" unicode="+"/><glyph d="M256 0v256h128v512h256v-512h-128v-256h-256z" unicode=","/><glyph d="M128 1024v256h768v-256h-768z" unicode="-"/><glyph d="M384 256v512h256v-512h-256z" unicode="."/><glyph d="M0 256v256h128v256h128v256h128v256h128v256h128v256h128v256h256v-256h-128v-256h-128v-256h-128v-256h-128v-256h-128v-256h-128v-256h-256z" unicode="/"/><glyph d="M128 512v1280h128v256h512v-256h128v-1280h-128v-256h-512v256h-128zM384 512h256v512h-128v-256h-128v-256zM384 1280h128v256h128v256h-256v-512z" unicode="0"/><glyph d="M128 256v256h256v1024h-128v256h128v256h256v-1536h256v-256h-768z" unicode="1"/><glyph d="M128 256v512h128v256h128v256h256v512h-256v-256h-256v256h128v256h512v-256h128v-512h-128v-256h-256v-256h-128v-256h256v256h256v-512h-768z" unicode="2"/><glyph d="M128 512v256h256v-256h256v512h-256v256h256v512h-256v-256h-256v256h128v256h512v-256h128v-512h-128v-256h128v-512h-128v-256h-512v256h-128z" unicode="3"/><glyph d="M0 768v512h128v256h128v256h128v256h384v-1024h128v-256h-128v-256h128v-256h-512v256h128v256h-512zM256 1024h256v512h-128v-256h-128v-256z" unicode="4"/><glyph d="M128 512v256h256v-256h256v768h-512v768h768v-256h-512v-256h384v-256h128v-768h-128v-256h-512v256h-128z" unicode="5"/><glyph d="M128 512v1024h128v256h128v256h384v-256h-256v-256h-128v-256h384v-256h128v-512h-128v-256h-512v256h-128zM384 512h256v512h-256v-512z" unicode="6"/><glyph d="M128 1536v512h768v-768h-128v-256h-128v-768h-256v768h128v256h128v512h-256v-256h-256z" unicode="7"/><glyph d="M128 512v512h128v256h-128v512h128v256h512v-256h128v-512h-128v-256h128v-512h-128v-256h-512v256h-128zM384 512h256v512h-256v-512zM384 1280h256v512h-256v-512z" unicode="8"/><glyph d="M128 1280v512h128v256h512v-256h128v-1024h-128v-256h-128v-256h-384v256h256v256h128v256h-384v256h-128zM384 1280h256v512h-256v-512z" unicode="9"/><glyph d="M384 256v512h256v-512h-256zM384 1280v512h256v-512h-256z" unicode=":"/><glyph d="M256 0v256h128v512h256v-512h-128v-256h-256zM384 1280v512h256v-512h-256z" unicode=";"/><glyph d="M128 1024v256h128v256h128v256h128v256h256v-256h-128v-256h-128v-256h-128v-256h128v-256h128v-256h128v-256h-256v256h-128v256h-128v256h-128z" unicode="&lt;"/><glyph d="M128 512v256h768v-256h-768zM128 1280v256h768v-256h-768z" unicode="="/><glyph d="M256 256v256h128v256h128v256h128v256h-128v256h-128v256h-128v256h256v-256h128v-256h128v-256h128v-256h-128v-256h-128v-256h-128v-256h-256z" unicode="&gt;"/><glyph d="M128 1536v256h128v256h512v-256h128v-512h-128v-256h-128v-256h-256v256h128v256h128v512h-256v-256h-256zM384 256v256h256v-256h-256z" unicode="?"/><glyph d="M0 512v1280h128v256h640v-256h128v-1024h-512v768h256v256h-384v-1280h384v-256h-512v256h-128z" unicode="@"/><glyph d="M0 256v512h128v512h128v512h128v256h256v-256h128v-512h128v-512h128v-512h-256v512h-512v-512h-256zM384 1024h256v256h-256v-256z" unicode="A"/><glyph d="M0 256v256h128v1280h-128v256h768v-256h128v-512h-128v-256h128v-512h-128v-256h-768zM384 512h256v512h-256v-512zM384 1280h256v512h-256v-512z" unicode="B"/><glyph d="M0 768v768h128v256h128v256h512v-256h128v-256h-256v256h-256v-256h-128v-768h128v-256h256v256h256v-256h-128v-256h-512v256h-128v256h-128z" unicode="C"/><glyph d="M0 256v256h128v1280h-128v256h640v-256h128v-256h128v-768h-128v-256h-128v-256h-640zM384 512h128v256h128v768h-128v256h-128v-1280z" unicode="D"/><glyph d="M0 256v256h128v1280h-128v256h896v-512h-256v256h-256v-512h256v-256h-256v-512h256v256h256v-512h-896z" unicode="E"/><glyph d="M0 256v256h128v1280h-128v256h896v-512h-256v256h-256v-512h256v-256h-256v-512h128v-256h-512z" unicode="F"/><glyph d="M0 768v768h128v256h128v256h512v-256h128v-256h-256v256h-256v-256h-128v-768h128v-256h256v512h-128v256h384v-1024h-640v256h-128v256h-128z" unicode="G"/><glyph d="M128 256v1792h256v-768h256v768h256v-1792h-256v768h-256v-768h-256z" unicode="H"/><glyph d="M128 256v256h256v1280h-256v256h768v-256h-256v-1280h256v-256h-768z" unicode="I"/><glyph d="M128 512v512h256v-512h256v1280h-128v256h384v-1536h-128v-256h-512v256h-128z" unicode="J"/><glyph d="M0 256v256h128v1280h-128v256h384v-768h128v256h128v512h256v-512h-128v-256h-128v-256h128v-256h128v-512h-256v512h-128v256h-128v-768h-384z" unicode="K"/><glyph d="M0 256v256h128v1280h-128v256h512v-256h-128v-1280h256v256h128v256h128v-768h-896z" unicode="L"/><glyph d="M0 256v1792h128v-256h128v-256h128v-256h128v256h128v256h128v256h128v-1792h-256v768h-128v-256h-128v256h-128v-768h-256z" unicode="M"/><glyph d="M0 256v1792h256v-256h128v-256h128v-256h128v768h256v-1792h-256v512h-128v256h-128v256h-128v-1024h-256z" unicode="N"/><glyph d="M0 768v768h128v256h128v256h384v-256h128v-256h128v-768h-128v-256h-128v-256h-384v256h-128v256h-128zM256 768h128v-256h128v256h128v768h-128v256h-128v-256h-128v-768z" unicode="O"/><glyph d="M0 256v256h128v1280h-128v256h768v-256h128v-512h-128v-256h-384v-512h128v-256h-512zM384 1280h256v512h-256v-512z" unicode="P"/><glyph d="M0 768v768h128v256h128v256h384v-256h128v-256h128v-768h-128v-512h128v-256h-256v256h-384v256h-128v256h-128zM256 768h128v-256h128v256h128v768h-128v256h-128v-256h-128v-768z" unicode="Q"/><glyph d="M0 256v256h128v1280h-128v256h768v-256h128v-512h-128v-512h128v-256h128v-256h-256v256h-128v256h-128v256h-128v-768h-384zM384 1280h256v512h-256v-512z" unicode="R"/><glyph d="M128 512v256h256v-256h256v256h-128v256h-256v256h-128v512h128v256h512v-256h128v-256h-256v256h-256v-256h128v-256h128v-256h256v-512h-128v-256h-512v256h-128z" unicode="S"/><glyph d="M128 1536v512h768v-512h-128v256h-128v-1280h128v-256h-512v256h128v1280h-128v-256h-128z" unicode="T"/><glyph d="M128 512v1536h256v-1536h256v1536h256v-1792h-640v256h-128z" unicode="U"/><glyph d="M0 1536v512h256v-512h128v-512h256v512h128v512h256v-512h-128v-512h-128v-512h-128v-256h-256v256h-128v512h-128v512h-128z" unicode="V"/><glyph d="M0 256v1792h256v-1024h128v256h128v-256h128v1024h256v-1792h-256v256h-128v256h-128v-256h-128v-256h-256z" unicode="W"/><glyph d="M0 256v256h128v256h128v256h128v256h-128v256h-128v256h-128v256h256v-256h128v-256h256v256h128v256h256v-256h-128v-256h-128v-256h-128v-256h128v-256h128v-256h128v-256h-256v256h-128v256h-256v-256h-128v-256h-256z" unicode="X"/><glyph d="M0 1536v512h256v-512h128v-256h256v256h128v512h256v-512h-128v-256h-128v-256h-128v-512h128v-256h-512v256h128v512h-128v256h-128v256h-128z" unicode="Y"/><glyph d="M0 256v256h128v256h128v256h128v256h128v256h128v256h-384v-256h-128v-256h-128v768h896v-512h-128v-256h-128v-256h-128v-256h-128v-256h256v256h128v256h128v-768h-896z" unicode="Z"/><glyph d="M256 256v1792h512v-256h-256v-1280h256v-256h-512z" unicode="["/><glyph d="M0 1792v256h256v-256h128v-256h128v-256h128v-256h128v-256h128v-256h128v-256h-256v256h-128v256h-128v256h-128v256h-128v256h-128v256h-128z" unicode="\"/><glyph d="M256 256v256h256v1280h-256v256h512v-1792h-512z" unicode="]"/><glyph d="M0 1024v244h128v256h128v256h128v256h128v-256h128v-256h128v-256h128v-256h-256v256h-128v256h-128v-256h-128v-244h-256z" unicode="^"/><glyph d="M0 0v256h896v-256h-896z" unicode="_"/><glyph d="M384 1536v512h256v-512h128v-256h-256v256h-128z" unicode="`"/><glyph d="M128 512v256h256v-256h256v-256h-384v256h-128zM256 1280v256h512v-256h128v-768h128v-256h-256v256h-128v256h-256v256h256v256h-384z" unicode="a"/><glyph d="M0 1792v256h384v-768h128v-256h-128v-512h256v768h-128v256h256v-256h128v-768h-128v-256h-512v256h-128v1280h-128z" unicode="b"/><glyph d="M128 512v768h128v256h512v-256h128v-256h-256v256h-256v-768h256v256h256v-256h-128v-256h-512v256h-128z" unicode="c"/><glyph d="M128 512v768h128v256h256v-256h128v512h-128v256h384v-1536h128v-256h-256v256h-128v512h-128v256h-128v-768h256v-256h-384v256h-128z" unicode="d"/><glyph d="M128 512v768h128v256h512v-256h128v-512h-512v-256h384v-256h-512v256h-128zM384 1024h256v256h-256v-256z" unicode="e"/><glyph d="M128 256v256h128v512h-128v256h128v512h128v256h384v-256h128v-256h-256v256h-128v-512h128v-256h-128v-512h128v-256h-512z" unicode="f"/><glyph d="M0 256v256h256v-256h384v256h-384v256h-128v512h128v256h384v-256h128v256h256v-256h-128v-512h-128v-256h128v-256h-128v-256h-640v256h-128zM384 768h256v512h-256v-512z" unicode="g"/><glyph d="M0 256v256h128v1280h-128v256h384v-768h128v-256h-128v-768h-384zM512 1280v256h256v-256h128v-1024h-256v1024h-128z" unicode="h"/><glyph d="M256 256v256h128v768h-128v256h384v-1024h128v-256h-512zM384 1792v256h256v-256h-256z" unicode="i"/><glyph d="M128 256v256h256v-256h256v1280h256v-1280h-128v-256h-512v256h-128zM640 1792v256h256v-256h-256z" unicode="j"/><glyph d="M0 256v256h128v1280h-128v256h384v-1024h128v256h128v256h256v-256h-128v-256h-128v-256h128v-256h128v-256h-256v256h-128v256h-128v-512h-384z" unicode="k"/><glyph d="M256 256v256h128v1280h-128v256h384v-1536h128v-256h-512z" unicode="l"/><glyph d="M128 256v1280h256v-256h128v-256h128v-256h-128v256h-128v-768h-256zM640 1024v512h256v-256h128v-1024h-256v768h-128z" unicode="m"/><glyph d="M128 256v1280h640v-256h128v-1024h-256v1024h-256v-1024h-256z" unicode="n"/><glyph d="M128 512v768h128v256h512v-256h128v-768h-128v-256h-512v256h-128zM384 512h256v768h-256v-768z" unicode="o"/><glyph d="M0 0v256h128v1024h-128v256h256v-256h128v256h384v-256h128v-512h-128v-256h-384v-256h128v-256h-512zM384 768h256v512h-256v-512z" unicode="p"/><glyph d="M128 768v512h128v256h512v-256h128v-1024h128v-256h-384v512h-384v256h-128zM384 768h256v512h-256v-512zM896 1280v256h128v-256h-128z" unicode="q"/><glyph d="M0 256v256h128v768h-128v256h384v-256h128v-256h-128v-512h128v-256h-512zM512 1280v256h256v-256h128v-512h-256v512h-128z" unicode="r"/><glyph d="M128 256v256h512v256h-384v256h-128v256h128v256h640v-256h-512v-256h384v-256h128v-256h-128v-256h-640z" unicode="s"/><glyph d="M256 1280v256h128v256h105v256h151v-512h256v-256h-256v-768h128v-256h-256v256h-128v768h-128zM768 512v256h128v-256h-128z" unicode="t"/><glyph d="M128 512v1024h256v-1024h256v-256h-384v256h-128zM640 512v1024h256v-1024h128v-256h-256v256h-128z" unicode="u"/><glyph d="M128 768v768h256v-768h256v768h256v-768h-128v-256h-128v-256h-256v256h-128v256h-128z" unicode="v"/><glyph d="M128 768v768h256v-768h128v-512h-256v512h-128zM512 768v512h128v-512h128v768h256v-768h-128v-512h-256v512h-128z" unicode="w"/><glyph d="M128 256v256h128v256h128v256h-128v256h-128v256h256v-256h128v-256h128v256h128v256h256v-256h-128v-256h-128v-256h128v-256h128v-256h-256v256h-128v256h-128v-256h-128v-256h-256z" unicode="x"/><glyph d="M128 0v256h256v256h-128v256h-128v768h256v-768h256v768h256v-768h-128v-256h-128v-256h-128v-256h-384z" unicode="y"/><glyph d="M128 256v256h128v256h128v256h128v256h-256v-256h-128v512h768v-256h-128v-256h-128v-256h-104v-256h232v256h128v-512h-768z" unicode="z"/><glyph d="M128 1024v256h256v512h128v256h384v-256h-256v-512h-128v-256h128v-512h256v-256h-384v256h-128v512h-256z" unicode="{"/><glyph d="M384 256v1792h256v-1792h-256z" unicode="|"/><glyph d="M128 256v256h256v512h128v256h-128v512h-256v256h384v-256h128v-512h256v-256h-256v-512h-128v-256h-384z" unicode="}"/><glyph d="M0 1536v256h128v-256h-128zM128 1792v256h384v-256h256v-256h-384v256h-256zM768 1792v256h128v-256h-128z" unicode="~"/><glyph d="M0 256v256h256v256h256v256h256v256h256v-512h-256v-256h-256v-256h-512zM0 1024v512h256v256h256v256h512v-256h-256v-256h-256v-256h-256v-256h-256z"/><glyph d="M128 256v1792h768v-1792h-768zM384 512h256v1280h-256v-1280z"/><glyph d="M128 256v1792h768v-1792h-768zM384 512h256v1280h-256v-1280z"/><glyph d="M128 256v1792h768v-1792h-768zM384 512h256v1280h-256v-1280z"/><glyph d="M128 256v1792h768v-1792h-768zM384 512h256v1280h-256v-1280z"/><glyph d="M128 256v1792h768v-1792h-768zM384 512h256v1280h-256v-1280z" unicode=""/><glyph d="M128 256v1792h768v-1792h-768zM384 512h256v1280h-256v-1280z"/><glyph d="M128 256v1792h768v-1792h-768zM384 512h256v1280h-256v-1280z"/><glyph d="M128 256v1792h768v-1792h-768zM384 512h256v1280h-256v-1280z"/><glyph d="M128 256v1792h768v-1792h-768zM384 512h256v1280h-256v-1280z"/><glyph d="M128 256v1792h768v-1792h-768zM384 512h256v1280h-256v-1280z"/><glyph d="M128 256v1792h768v-1792h-768zM384 512h256v1280h-256v-1280z"/><glyph d="M128 256v1792h768v-1792h-768zM384 512h256v1280h-256v-1280z"/><glyph d="M128 256v1792h768v-1792h-768zM384 512h256v1280h-256v-1280z"/><glyph d="M128 256v1792h768v-1792h-768zM384 512h256v1280h-256v-1280z"/><glyph d="M128 256v1792h768v-1792h-768zM384 512h256v1280h-256v-1280z"/><glyph d="M128 256v1792h768v-1792h-768zM384 512h256v1280h-256v-1280z"/><glyph d="M128 256v1792h768v-1792h-768zM384 512h256v1280h-256v-1280z"/><glyph d="M128 256v1792h768v-1792h-768zM384 512h256v1280h-256v-1280z"/><glyph d="M128 256v1792h768v-1792h-768zM384 512h256v1280h-256v-1280z"/><glyph d="M128 256v1792h768v-1792h-768zM384 512h256v1280h-256v-1280z"/><glyph d="M128 256v1792h768v-1792h-768zM384 512h256v1280h-256v-1280z"/><glyph d="M128 256v1792h768v-1792h-768zM384 512h256v1280h-256v-1280z"/><glyph d="M128 256v1792h768v-1792h-768zM384 512h256v1280h-256v-1280z"/><glyph d="M128 256v1792h768v-1792h-768zM384 512h256v1280h-256v-1280z"/><glyph d="M128 256v1792h768v-1792h-768zM384 512h256v1280h-256v-1280z"/><glyph/><glyph d="M256 512v512h128v512h256v-512h128v-512h-128v-256h-256v256h-128zM384 1792v256h256v-256h-256z" unicode="¡"/><glyph d="M128 1024v512h128v256h256v256h256v-256h128v-256h-128v-512h128v-256h-128v-256h-256v256h-256v256h-128zM384 1024h128v512h-128v-512z" unicode="¢"/><glyph d="M128 256v256h128v512h-128v256h128v512h128v256h384v-256h128v-256h-256v256h-128v-512h128v-256h-128v-512h384v-256h-768z" unicode="£"/><glyph d="M128 768v256h128v-256h-128zM128 1280v256h128v256h-128v256h128v-256h512v-256h128v-256h-128v-256h128v-256h-128v256h-512v256h-128zM384 1280h256v256h-256v-256zM768 1792v256h128v-256h-128z" unicode="¤"/><glyph d="M0 1792v256h256v-256h128v-256h256v256h128v256h256v-256h-128v-256h-128v-256h-128v-256h128v-256h-128v-256h128v-256h-512v256h128v256h-128v256h128v256h-128v256h-128v256h-128z" unicode="¥"/><glyph d="M384 256v768h256v-768h-256zM384 1280v768h256v-768h-256z" unicode="¦"/><glyph d="M128 1024v256h128v256h-128v256h128v-256h512v-256h128v-256h-128v-256h128v-256h-128v256h-512v256h-128zM256 256v256h512v-256h-512zM256 1792v256h512v-256h-512zM384 1024h256v256h-256v-256z" unicode="§"/><glyph d="M128 1792v256h256v-256h-256zM640 1792v256h256v-256h-256z" unicode="¨"/><glyph d="M0 256v1536h128v-1536h768v-256h-768v256h-128zM128 1792v256h768v-256h128v-1536h-128v1536h-768zM256 768v512h128v256h384v-256h-256v-512h256v-256h-384v256h-128z" unicode="©"/><glyph d="M0 512v256h768v-256h-768zM0 1024v512h128v-256h384v512h-256v256h256v-256h128v-768h-640zM128 1536v256h128v-256h-128z" unicode="ª"/><glyph d="M0 1024v256h128v256h128v256h256v-256h-128v-256h-128v-256h128v-256h128v-256h-256v256h-128v256h-128zM512 1024v256h128v256h128v256h256v-256h-128v-256h-128v-256h128v-256h128v-256h-256v256h-128v256h-128z" unicode="«"/><glyph d="M256 1792v256h640v-512h-256v256h-384z" unicode="¬"/><glyph d="M128 1024v512h768v-512h-768z" unicode="­"/><glyph d="M0 256v1536h128v-1536h768v-256h-768v256h-128zM128 1792v256h768v-256h128v-1536h-128v1536h-768zM256 512v1024h384v-512h-128v-256h128v-256h-128v256h-128v-256h-128z" unicode="®"/><glyph d="M128 1792v256h768v-256h-768z" unicode="¯"/><glyph d="M128 1536v256h128v256h512v-256h128v-256h-128v-256h-512v256h-128zM384 1536h256v256h-256v-256z" unicode="°"/><glyph d="M128 256v256h768v-256h-768zM128 1280v256h256v512h256v-512h256v-256h-256v-512h-256v512h-256z" unicode="±"/><glyph d="M0 768v256h128v256h128v256h128v256h-384v256h512v-256h128v-256h-128v-256h-128v-256h256v-256h-640z" unicode="²"/><glyph d="M0 768v256h384v256h-128v256h128v256h-384v256h512v-256h128v-256h-128v-256h128v-256h-128v-256h-512z" unicode="³"/><glyph d="M256 1536v279h128v233h256v-256h-128v-256h-256z" unicode="´"/><glyph d="M0 0v1536h256v-768h128v-256h128v256h128v768h256v-1280h-128v256h-128v-256h-384v-256h-256z" unicode="µ"/><glyph d="M0 1280v512h128v256h768v-256h-128v-1536h-128v1536h-128v-1536h-128v768h-256v256h-128z" unicode="¶"/><glyph d="M384 1024v512h256v-512h-256z" unicode="·"/><glyph d="M256 0v256h128v256h256v-256h-128v-256h-256z" unicode="¸"/><glyph d="M128 1536v256h128v256h256v-1280h-256v768h-128z" unicode="¹"/><glyph d="M0 512v256h640v-256h-640zM0 1280v512h128v-512h384v-256h-384v256h-128zM128 1792v256h384v-256h128v-512h-128v512h-384z" unicode="º"/><glyph d="M0 512v256h128v256h128v256h-128v256h-128v256h256v-256h128v-256h128v-256h-128v-256h-128v-256h-256zM512 512v256h128v256h128v256h-128v256h-128v256h256v-256h128v-256h128v-256h-128v-256h-128v-256h-256z" unicode="»"/><glyph d="M128 256v256h128v256h128v256h-128v512h-128v256h128v256h128v-1024h128v256h128v256h128v256h256v-256h-128v-256h-128v-256h-128v-256h-128v-256h-128v-256h-256zM640 256v256h128v256h128v256h128v-1024h-128v256h-256z" unicode="¼"/><glyph d="M128 256v256h128v256h128v256h-128v512h-128v256h128v256h128v-1024h128v256h128v256h128v256h256v-256h-128v-256h-128v-256h256v-512h-128v256h-128v256h-128v-256h-128v-256h-128v-256h-256zM640 0v256h128v256h128v-256h128v-256h-384z" unicode="½"/><glyph d="M0 768v256h256v-256h-256zM0 1792v256h256v-256h128v-768h128v256h128v256h128v256h256v-256h-128v-256h-128v-256h-128v-256h-128v-256h-128v-256h-256v256h128v256h128v256h-128v256h-128v256h128v256h-256zM640 256v256h128v256h128v256h128v-1024h-128v256h-256z" unicode="¾"/><glyph d="M128 512v512h128v256h128v256h256v-256h-128v-256h-128v-512h256v256h256v-256h-128v-256h-512v256h-128zM384 1792v256h256v-256h-256z" unicode="¿"/><glyph d="M0 256v512h128v512h128v256h256v256h-256v256h256v-256h128v-256h128v-256h128v-512h128v-512h-256v512h-512v-512h-256zM384 1024h256v256h-256v-256z" unicode="À"/><glyph d="M0 256v512h128v512h128v256h128v256h128v-256h256v-256h128v-512h128v-512h-256v512h-512v-512h-256zM384 1024h256v256h-256v-256zM512 1792v256h256v-256h-256z" unicode="Á"/><glyph d="M0 256v512h128v512h128v512h128v256h256v-256h128v-512h128v-512h128v-512h-256v512h-512v-512h-256zM384 1024h256v256h-256v-256zM384 1536h256v256h-256v-256z" unicode="Â"/><glyph d="M0 256v512h128v512h128v256h256v256h-384v256h384v-256h384v-256h-128v-256h128v-512h128v-512h-256v512h-512v-512h-256zM0 1536v256h128v-256h-128zM384 1024h256v256h-256v-256zM896 1792v256h128v-256h-128z" unicode="Ã"/><glyph d="M0 256v512h128v512h128v256h128v256h256v-256h128v-256h128v-512h128v-512h-256v512h-512v-512h-256zM0 1792v256h256v-256h-256zM384 1024h256v256h-256v-256zM768 1792v256h256v-256h-256z" unicode="Ä"/><glyph d="M0 256v512h128v512h128v256h-128v256h256v256h256v-256h256v-256h-128v-256h128v-512h128v-512h-256v512h-512v-512h-256zM384 1024h256v256h-256v-256zM384 1536h256v256h-256v-256z" unicode="Å"/><glyph d="M0 256v512h128v512h128v512h128v256h640v-256h-256v-512h256v-256h-256v-512h256v-256h-512v512h-256v-512h-256zM384 1024h128v256h-128v-256z" unicode="Æ"/><glyph d="M0 1024v512h128v256h128v256h512v-256h128v-256h-256v256h-256v-256h-128v-512h128v-256h256v256h256v-256h-128v-256h-128v-256h-128v256h-256v256h-128v256h-128zM256 0v256h256v-256h-256z" unicode="Ç"/><glyph d="M0 256v256h128v768h-128v256h384v256h-256v256h256v-256h128v-256h384v-256h-512v-256h256v-256h-256v-256h512v-256h-896z" unicode="È"/><glyph d="M0 256v256h128v768h-128v256h256v256h128v-256h512v-256h-512v-256h256v-256h-256v-256h512v-256h-896zM384 1792v256h256v-256h-256z" unicode="É"/><glyph d="M0 256v256h128v768h-128v256h128v256h128v256h256v-256h128v-256h256v-256h-512v-256h256v-256h-256v-256h512v-256h-896zM256 1536h256v256h-256v-256z" unicode="Ê"/><glyph d="M0 256v256h128v768h-128v256h896v-256h-512v-256h256v-256h-256v-256h512v-256h-896zM128 1792v256h256v-256h-256zM640 1792v256h256v-256h-256z" unicode="Ë"/><glyph d="M128 256v256h256v768h-256v256h384v256h-256v256h256v-256h128v-256h256v-256h-256v-768h256v-256h-768z" unicode="Ì"/><glyph d="M128 256v256h256v768h-256v256h256v256h128v-256h384v-256h-256v-768h256v-256h-768zM512 1792v256h256v-256h-256z" unicode="Í"/><glyph d="M128 256v256h256v768h-256v256h128v256h128v256h256v-256h128v-256h128v-256h-256v-768h256v-256h-768zM384 1536h256v256h-256v-256z" unicode="Î"/><glyph d="M128 256v256h256v768h-256v256h768v-256h-256v-768h256v-256h-768zM128 1792v256h256v-256h-256zM640 1792v256h256v-256h-256z" unicode="Ï"/><glyph d="M0 256v256h128v512h-128v256h128v512h-128v256h640v-256h128v-256h128v-768h-128v-256h-128v-256h-640zM384 512h128v256h128v768h-128v256h-128v-512h128v-256h-128v-512z" unicode="Ð"/><glyph d="M0 256v1536h128v-256h128v-256h128v-256h128v-256h128v768h-128v256h-384v256h384v-256h384v-1536h-256v256h-128v256h-128v256h-128v-768h-256zM896 1792v256h128v-256h-128z" unicode="Ñ"/><glyph d="M0 768v256h128v256h128v256h256v256h-256v256h256v-256h128v-256h128v-256h128v-256h128v-256h-128v-256h-128v-256h-512v256h-128v256h-128zM256 768h128v-256h256v256h128v256h-128v256h-256v-256h-128v-256z" unicode="Ò"/><glyph d="M0 768v256h128v256h128v256h128v256h128v-256h256v-256h128v-256h128v-256h-128v-256h-128v-256h-512v256h-128v256h-128zM256 768h128v-256h256v256h128v256h-128v256h-256v-256h-128v-256zM512 1792v256h256v-256h-256z" unicode="Ó"/><glyph d="M0 768v256h128v256h128v512h128v256h256v-256h128v-512h128v-256h128v-256h-128v-256h-128v-256h-512v256h-128v256h-128zM256 768h128v-256h256v256h128v256h-128v256h-256v-256h-128v-256zM384 1536h256v256h-256v-256z" unicode="Ô"/><glyph d="M0 768v256h128v256h128v256h256v256h-384v256h384v-256h384v-256h-128v-256h128v-256h128v-256h-128v-256h-128v-256h-512v256h-128v256h-128zM0 1536v256h128v-256h-128zM256 768h128v-256h256v256h128v256h-128v256h-256v-256h-128v-256zM896 1792v256h128v-256h-128z" unicode="Õ"/><glyph d="M0 768v512h128v256h128v256h-256v256h256v-256h512v-256h128v-256h128v-512h-128v-256h-128v-256h-512v256h-128v256h-128zM256 768h128v-256h256v256h128v512h-128v256h-256v-256h-128v-512zM768 1792v256h256v-256h-256z" unicode="Ö"/><glyph d="M128 512v256h128v256h128v256h-128v256h-128v256h256v-256h128v-256h128v256h128v256h256v-256h-128v-256h-128v-256h128v-256h128v-256h-256v256h-128v256h-128v-256h-128v-256h-256z" unicode="×"/><glyph d="M0 256v256h128v-256h-128zM0 768v768h128v256h128v256h512v-256h128v-256h128v-768h-128v-256h-128v-256h-512v256h-128v256h-128zM256 1024h128v256h128v256h128v256h-256v-256h-128v-512zM384 512h256v256h128v512h-128v-256h-128v-256h-128v-256zM896 1792v256h128 v-256h-128z" unicode="Ø"/><glyph d="M128 512v1024h256v-1024h256v1024h-128v256h-256v256h256v-256h128v-256h256v-1280h-640v256h-128z" unicode="Ù"/><glyph d="M128 512v1024h256v-1024h256v1024h256v-1280h-640v256h-128zM384 1536v256h128v-256h-128zM512 1792v256h256v-256h-256z" unicode="Ú"/><glyph d="M128 512v1024h128v256h128v256h256v-256h128v-256h128v-1280h-640v256h-128zM384 512h256v1280h-256v-1280z" unicode="Û"/><glyph d="M128 512v1024h256v-1024h256v1024h256v-1280h-640v256h-128zM128 1792v256h256v-256h-256zM640 1792v256h256v-256h-256z" unicode="Ü"/><glyph d="M0 1280v256h256v-256h128v-256h256v256h128v256h256v-256h-128v-256h-128v-256h-128v-256h128v-256h-512v256h128v256h-128v256h-128v256h-128zM512 1536v256h128v-256h-128zM640 1792v256h256v-256h-256z" unicode="Ý"/><glyph d="M0 0v256h128v1536h-128v256h512v-256h-128v-256h512v-256h128v-512h-128v-256h-512v-256h128v-256h-512zM384 768h384v512h-384v-512z" unicode="Þ"/><glyph d="M128 0v2048h640v-256h128v-512h-128v-256h128v-512h-128v-256h-256v256h128v512h-128v256h128v512h-256v-1792h-256z" unicode="ß"/><glyph d="M128 512v256h256v-256h256v-256h-384v256h-128zM256 1280v256h256v256h-256v256h256v-256h128v-256h128v-256h128v-768h128v-256h-256v256h-128v256h-256v256h256v256h-384z" unicode="à"/><glyph d="M128 512v256h256v-256h256v-256h-384v256h-128zM256 1280v256h128v256h128v-256h256v-256h128v-768h128v-256h-256v256h-128v256h-256v256h256v256h-384zM512 1792v256h256v-256h-256z" unicode="á"/><glyph d="M128 512v256h256v-256h256v-256h-384v256h-128zM256 1280v512h128v256h256v-256h128v-512h128v-768h128v-256h-256v256h-128v256h-256v256h256v256h-384zM384 1536h256v256h-256v-256z" unicode="â"/><glyph d="M0 1536v256h128v-256h-128zM128 512v256h256v-256h256v-256h-384v256h-128zM128 1792v256h384v-256h384v-256h-128v-256h128v-768h128v-256h-256v256h-128v256h-256v256h256v256h-384v256h256v256h-384zM896 1792v256h128v-256h-128z" unicode="ã"/><glyph d="M128 512v256h256v-256h256v-256h-384v256h-128zM256 1280v256h512v-256h128v-768h128v-256h-256v256h-128v256h-256v256h256v256h-384zM256 1792v256h256v-256h-256zM768 1792v256h256v-256h-256z" unicode="ä"/><glyph d="M128 512v256h256v-256h256v-256h-384v256h-128zM128 1536v256h128v256h512v-256h128v-256h-128v-256h128v-768h128v-256h-256v256h-128v256h-256v256h256v256h-384v256h-128zM384 1536h256v256h-256v-256z" unicode="å"/><glyph d="M0 512v256h128v256h256v256h-256v256h768v-256h128v-512h-384v-256h384v-256h-384v256h-128v-256h-384v256h-128zM256 512h128v256h-128v-256zM640 1024h128v256h-128v-256z" unicode="æ"/><glyph d="M128 512v768h128v256h512v-256h128v-256h-256v256h-256v-768h256v256h256v-256h-128v-256h-256v-256h-128v256h-128v256h-128z" unicode="ç"/><glyph d="M128 512v768h128v256h256v256h-256v256h256v-256h128v-256h128v-256h128v-512h-512v-256h384v-256h-512v256h-128zM384 1024h256v256h-256v-256z" unicode="è"/><glyph d="M128 512v768h128v256h128v256h128v-256h256v-256h128v-512h-512v-256h384v-256h-512v256h-128zM384 1024h256v256h-256v-256zM512 1792v256h256v-256h-256z" unicode="é"/><glyph d="M128 512v768h128v512h128v256h256v-256h128v-512h128v-512h-512v-256h384v-256h-512v256h-128zM384 1024h256v256h-256v-256zM384 1536h256v256h-256v-256z" unicode="ê"/><glyph d="M128 512v768h128v256h512v-256h128v-512h-512v-256h384v-256h-512v256h-128zM128 1792v256h256v-256h-256zM384 1024h256v256h-256v-256zM640 1792v256h256v-256h-256z" unicode="ë"/><glyph d="M256 256v256h128v768h-128v256h256v256h-256v256h256v-256h128v-1280h128v-256h-512z" unicode="ì"/><glyph d="M256 256v256h128v768h-128v256h128v256h128v-256h128v-1024h128v-256h-512zM512 1792v256h256v-256h-256z" unicode="í"/><glyph d="M256 256v256h128v768h-128v512h128v-256h256v-1024h128v-256h-512zM384 1792v256h256v-256h128v-256h-128v256h-256z" unicode="î"/><glyph d="M128 1792v256h256v-256h-256zM256 256v256h128v768h-128v256h384v-1024h128v-256h-512zM640 1792v256h256v-256h-256z" unicode="ï"/><glyph d="M0 512v512h128v256h256v256h-384v256h128v256h256v-256h384v-256h-128v-256h128v-256h128v-512h-128v-256h-640v256h-128zM256 512h384v512h-384v-512z" unicode="ð"/><glyph d="M0 1536v256h128v-256h384v256h-384v256h384v-256h384v-256h-128v-256h128v-1024h-256v1024h-256v-1024h-256v1280h-128zM896 1792v256h128v-256h-128z" unicode="ñ"/><glyph d="M128 512v768h128v256h256v256h-256v256h256v-256h128v-256h128v-256h128v-768h-128v-256h-512v256h-128zM384 512h256v768h-256v-768z" unicode="ò"/><glyph d="M128 512v768h128v256h128v256h128v-256h256v-256h128v-768h-128v-256h-512v256h-128zM384 512h256v768h-256v-768zM512 1792v256h256v-256h-256z" unicode="ó"/><glyph d="M128 512v768h128v512h128v256h256v-256h128v-512h128v-768h-128v-256h-512v256h-128zM384 512h256v768h-256v-768zM384 1536h256v256h-256v-256z" unicode="ô"/><glyph d="M0 1536v256h128v-256h-128zM128 512v768h128v256h256v256h384v-256h-128v-256h128v-768h-128v-256h-512v256h-128zM128 1792v256h384v-256h-384zM384 512h256v768h-256v-768zM896 1792v256h128v-256h-128z" unicode="õ"/><glyph d="M128 512v768h128v256h512v-256h128v-768h-128v-256h-512v256h-128zM128 1792v256h256v-256h-256zM384 512h256v768h-256v-768zM640 1792v256h256v-256h-256z" unicode="ö"/><glyph d="M128 1024v256h768v-256h-768zM384 512v256h256v-256h-256zM384 1536v256h256v-256h-256z" unicode="÷"/><glyph d="M128 0v256h128v-256h-128zM128 512v768h128v256h640v-256h128v-768h-128v-256h-640v256h-128zM384 768h128v-256h256v512h-128v256h-256v-512zM512 768v256h128v-256h-128zM896 1536v256h128v-256h-128z" unicode="ø"/><glyph d="M128 512v1024h256v-1024h256v-256h-384v256h-128zM256 1792v256h256v-256h128v-256h256v-1024h128v-256h-256v256h-128v1024h-128v256h-256z" unicode="ù"/><glyph d="M128 512v1024h256v-1024h256v-256h-384v256h-128zM384 1536v256h128v-256h-128zM512 1792v256h256v-256h-256zM640 512v1024h256v-1024h128v-256h-256v256h-128z" unicode="ú"/><glyph d="M128 512v1024h128v256h128v-1280h256v-256h-384v256h-128zM384 1792v256h256v-256h128v-256h128v-1024h128v-256h-256v256h-128v1280h-256z" unicode="û"/><glyph d="M128 512v1024h256v-1024h256v-256h-384v256h-128zM128 1792v256h256v-256h-256zM640 512v1024h256v-1024h128v-256h-256v256h-128zM640 1792v256h256v-256h-256z" unicode="ü"/><glyph d="M128 0v256h256v256h-128v256h-128v768h256v-768h256v768h256v-768h-128v-256h-128v-256h-128v-256h-384zM384 1536v256h128v-256h-128zM512 1792v256h256v-256h-256z" unicode="ý"/><glyph d="M0 0v256h128v1536h-128v256h512v-256h-128v-256h384v-256h128v-512h-128v-256h-384v-256h128v-256h-512zM384 768h256v512h-256v-512z" unicode="þ"/><glyph d="M128 0v256h256v256h-128v256h-128v768h256v-768h256v768h256v-768h-128v-256h-128v-256h-128v-256h-384zM128 1792v256h256v-256h-256zM640 1792v256h256v-256h-256z" unicode="ÿ"/><glyph/><glyph horiz-adv-x="2048"/><glyph/><glyph horiz-adv-x="2048"/><glyph horiz-adv-x="682"/><glyph horiz-adv-x="512"/><glyph horiz-adv-x="341"/><glyph horiz-adv-x="341"/><glyph horiz-adv-x="256"/><glyph horiz-adv-x="409"/><glyph horiz-adv-x="113"/><glyph d="M128 1024v256h768v-256h-768z" unicode="‐"/><glyph d="M128 1024v256h768v-256h-768z" unicode="‑"/><glyph d="M128 1024v256h768v-256h-768z" unicode="‒"/><glyph d="M128 1024v256h1024v-256h-1024z" horiz-adv-x="1280" unicode="–"/><glyph d="M128 1024v256h2048v-256h-2048z" horiz-adv-x="2304" unicode="—"/><glyph horiz-adv-x="409"/><glyph horiz-adv-x="512"/><glyph d="M0 0v1536h1536v-1536h-1536z" horiz-adv-x="1536" unicode="◼"/><glyph d="M128 256v1792h768v-1792h-768zM384 512h256v1280h-256v-1280z"/><glyph d="M128 256v1792h768v-1792h-768zM384 512h256v1280h-256v-1280z"/><glyph d="M128 256v1792h768v-1792h-768zM384 512h256v1280h-256v-1280z"/><glyph d="M128 256v1792h768v-1792h-768zM384 512h256v1280h-256v-1280z"/><glyph d="M128 256v1792h768v-1792h-768zM384 512h256v1280h-256v-1280z"/><glyph d="M128 256v1792h768v-1792h-768zM384 512h256v1280h-256v-1280z"/><glyph/><glyph/><glyph/><glyph/><glyph/><glyph/><glyph/><glyph/><glyph/><glyph/><glyph/><glyph/><glyph/><glyph/><glyph/><glyph/><glyph/><glyph/><glyph/><glyph/><glyph/><glyph/><glyph/><glyph/><glyph/><glyph/><glyph/><glyph d="M128 256v1792h768v-1792h-768zM384 512h256v1280h-256v-1280z"/></font>
</defs>
</svg>
